<?xml version="1.0" encoding="utf-8"?>
<!-- Generator: Adobe Illustrator 27.3.1, SVG Export Plug-In . SVG Version: 6.00 Build 0)  -->
<svg version="1.1" id="Layer_1" xmlns="http://www.w3.org/2000/svg" xmlns:xlink="http://www.w3.org/1999/xlink" x="0px" y="0px"
	 viewBox="0 0 177.78 164.1" style="enable-background:new 0 0 177.78 164.1;" xml:space="preserve">
<style type="text/css">
	.st0{fill-rule:evenodd;clip-rule:evenodd;}
	.st1{fill-rule:evenodd;clip-rule:evenodd;fill:none;stroke:#000000;stroke-width:4;stroke-miterlimit:10;}
	.st2{fill:none;stroke:#000000;stroke-width:4;stroke-miterlimit:10;}
	.st3{fill:#FFFFFF;}
</style>
<path class="st2" d="M86.55,48.23c-43.45,0-65.48,6.31-65.48,18.71c0,0.37,0,0.75,0.05,1.12c0.56,35.59,29.7,64.36,65.44,64.36
	s64.87-28.77,65.44-64.36c0.05-0.37,0.05-0.75,0.05-1.12C152.03,54.55,130,48.23,86.55,48.23L86.55,48.23z M86.55,57.59
	c42.84,0,56.13,6.88,56.13,9.35s-13.28,9.35-56.13,9.35s-56.13-6.88-56.13-9.35S43.7,57.59,86.55,57.59z"/>
</svg>
