<?xml version="1.0" encoding="utf-8"?>
<!-- Generator: Adobe Illustrator 27.3.1, SVG Export Plug-In . SVG Version: 6.00 Build 0)  -->
<svg version="1.1" id="Layer_1" xmlns="http://www.w3.org/2000/svg" xmlns:xlink="http://www.w3.org/1999/xlink" x="0px" y="0px"
	 viewBox="0 0 177.78 164.1" style="enable-background:new 0 0 177.78 164.1;" xml:space="preserve">
<g>
	<path d="M90.17,31.12c-27.14,0-49.22,22.08-49.22,49.22s22.08,49.22,49.22,49.22s49.22-22.08,49.22-49.22S117.31,31.12,90.17,31.12
		z M90.17,124.87c-24.56,0-44.53-19.98-44.53-44.53s19.98-44.53,44.53-44.53s44.53,19.98,44.53,44.53S114.72,124.87,90.17,124.87z"
		/>
	<path d="M92.51,81.24V61.58c0-1.29-1.05-2.34-2.34-2.34s-2.34,1.05-2.34,2.34v20.63c0,0.62,0.25,1.22,0.69,1.66l16.9,16.9
		c0.46,0.46,1.06,0.69,1.66,0.69c0.6,0,1.2-0.23,1.66-0.69c0.91-0.91,0.91-2.4,0-3.31L92.51,81.24z"/>
</g>
</svg>
