<?xml version="1.0" encoding="utf-8"?>
<!-- Generator: Adobe Illustrator 27.3.1, SVG Export Plug-In . SVG Version: 6.00 Build 0)  -->
<svg version="1.1" id="Layer_1" xmlns="http://www.w3.org/2000/svg" xmlns:xlink="http://www.w3.org/1999/xlink" x="0px" y="0px"
	 viewBox="0 0 177.78 164.1" style="enable-background:new 0 0 177.78 164.1;" xml:space="preserve">
<style type="text/css">
	.st0{fill-rule:evenodd;clip-rule:evenodd;}
	.st1{fill-rule:evenodd;clip-rule:evenodd;fill:none;stroke:#000000;stroke-width:4;stroke-miterlimit:10;}
	.st2{fill:none;stroke:#000000;stroke-width:4;stroke-miterlimit:10;}
	.st3{fill:#FFFFFF;}
</style>
<path class="st1" d="M73.48,37.18c-6.19,0.4-12.38,1.07-18.57,1.98c-3.55,0.52-6.94,2.97-6.52,6.56c0.82,7.94,1.52,15.86,1.87,23.8
	c0,1.71-0.55,3.2-1.76,4.38c-1.23,1.17-2.75,1.73-4.45,1.58c-1.41-0.14-2.8-0.53-4.03-1.17c-1.63-0.83-3.47-1.31-5.42-1.31
	c-6.5,0-11.76,5.29-11.76,11.79c0,6.5,5.25,11.77,11.76,11.77c2.49,0,4.8-0.75,6.69-2.08c1.83-1.26,4.09-1.37,6.04-0.29
	c1.95,1.08,3.05,3.03,2.94,5.26c-0.41,7.35-0.96,14.7-1.87,22.07c-0.41,3.58,2.99,5.96,6.54,6.54c6.63,1.07,13.18,1.86,19.71,2.32
	c2.08,0.15,3.95-0.77,5.12-2.48c1.23-1.74,1.37-3.8,0.41-5.68c0-0.14,0-0.23-0.14-0.34c-0.82-1.63-1.37-3.46-1.37-5.42
	c0-6.5,5.26-11.77,11.76-11.77c6.5,0,11.79,5.25,11.79,11.77c0,1.91-0.27,3.86-1.09,5.44c-0.96,1.89-0.82,4.01,0.27,5.79
	c1.23,1.78,3.1,2.71,5.23,2.53c5.72-0.46,11.42-1.19,17.08-2.16c3.54-0.61,7.19-3.04,6.53-6.56c-1.49-7.91-2.42-15.81-2.91-23.72
	c0-1.68,0.41-3.17,1.63-4.38c1.23-1.2,2.66-1.79,4.36-1.71c1.52,0.14,3.01,0.51,4.43,1.23c1.63,0.83,3.46,1.31,5.41,1.31
	c6.5,0,11.78-5.25,11.78-11.77c0-6.5-5.26-11.79-11.78-11.79c-2.45,0-4.71,0.77-6.61,2.05c-1.84,1.27-4.13,1.34-6.08,0.22
	s-3.01-3.12-2.83-5.36c0.55-7.28,1.42-14.57,2.61-21.85c0.55-3.55-2.96-6.06-6.53-6.54c-6.83-0.9-13.65-1.58-20.47-1.97
	c-1.87-0.14-3.54,0.6-4.73,2.03c-1.23,1.42-1.6,3.17-1.23,4.99c0.27,1.17,0.68,2.3,1.23,3.34c0.82,1.61,1.23,3.46,1.23,5.42
	c0,6.5-5.25,11.77-11.76,11.77c-6.5,0-11.79-5.26-11.79-11.77c0-2.51,0.82-4.85,2.13-6.78c1.37-1.83,1.42-4.12,0.27-6.08
	c-1.09-1.97-3.1-3.05-5.36-2.91L73.48,37.18z"/>
</svg>
