<svg width="29" height="25" viewBox="0 0 29 25" fill="none" xmlns="http://www.w3.org/2000/svg">
<path fill-rule="evenodd" clip-rule="evenodd" d="M17.4697 18.9286C17.4697 15.8513 19.9385 13.3571 22.9848 13.3571C26.031 13.3571 28.5 15.8511 28.5 18.9286C28.5 22.0058 26.0312 24.5 22.9848 24.5C19.9387 24.5 17.4697 22.006 17.4697 18.9286ZM18.3182 18.9286C18.3182 21.5326 20.4073 23.6429 22.9848 23.6429C25.5626 23.6429 27.6515 21.5324 27.6515 18.9286C27.6515 16.3245 25.5624 14.2143 22.9848 14.2143C20.4071 14.2143 18.3182 16.3247 18.3182 18.9286ZM22.5606 18.5V17.2143C22.5606 16.9776 22.7505 16.7857 22.9848 16.7857C23.2192 16.7857 23.4091 16.9776 23.4091 17.2143V18.5H24.6818C24.9161 18.5 25.1061 18.6919 25.1061 18.9286C25.1061 19.1653 24.9161 19.3571 24.6818 19.3571H23.4091V20.6429C23.4091 20.8796 23.2192 21.0714 22.9848 21.0714C22.7505 21.0714 22.5606 20.8796 22.5606 20.6429V19.3571H21.2879C21.0536 19.3571 20.8636 19.1653 20.8636 18.9286C20.8636 18.6919 21.0536 18.5 21.2879 18.5H22.5606ZM14.9242 21.0714C15.1585 21.0714 15.3485 21.2633 15.3485 21.5C15.3485 21.7367 15.1585 21.9286 14.9242 21.9286H3.47211C1.83176 21.9286 0.5 20.5843 0.5 18.9302V3.49724C0.5 1.84183 1.82837 0.5 3.46729 0.5H10.6797C11.3013 0.5 12.011 0.914518 12.3181 1.45751L13.1761 2.97437C13.3316 3.24924 13.76 3.5 14.0721 3.5H22.982C24.6226 3.5 25.9545 4.8441 25.9545 6.49797V10.7857C25.9545 11.0224 25.7646 11.2143 25.5303 11.2143C25.296 11.2143 25.1061 11.0224 25.1061 10.7857V6.49797C25.1061 5.3177 24.1542 4.35714 22.982 4.35714H14.0721C13.4557 4.35714 12.7461 3.94173 12.4395 3.39963L11.5814 1.88277C11.4256 1.6073 10.9973 1.35714 10.6797 1.35714H3.46729C2.29697 1.35714 1.34848 2.31523 1.34848 3.49724V18.9302C1.34848 20.1107 2.30022 21.0714 3.47211 21.0714H14.9242Z" fill="#2E4765" stroke="#2E4765" stroke-width="0.5"/>
</svg>
