<svg width="25" height="26" viewBox="0 0 25 26" fill="none" xmlns="http://www.w3.org/2000/svg">
<circle cx="12.5" cy="13" r="12.5" fill="#F7F7F7"/>
<path d="M13.0215 16.4994C13.1923 16.4951 13.3554 16.422 13.4795 16.2943L17.7894 11.7929C17.9209 11.6544 17.9966 11.4649 17.9999 11.2657C18.0031 11.0666 17.9337 10.8742 17.8068 10.7307C17.6799 10.5872 17.5058 10.5043 17.3228 10.5002C17.1398 10.496 16.9628 10.571 16.8305 10.7086L13 14.7118L9.16952 10.7086C9.03724 10.571 8.86018 10.496 8.67717 10.5002C8.49416 10.5043 8.32013 10.5872 8.19321 10.7307C8.06629 10.8742 7.99685 11.0666 8.00011 11.2657C8.00337 11.4649 8.07905 11.6544 8.21058 11.7929L12.5205 16.2943C12.5873 16.3631 12.666 16.4167 12.752 16.4519C12.838 16.4871 12.9297 16.5033 13.0215 16.4994Z" fill="#2E4765"/>
</svg>
