<svg width="46" height="48" viewBox="0 0 46 48" fill="none" xmlns="http://www.w3.org/2000/svg">
<path d="M26 45C26 46.6569 24.6569 48 23 48C21.3431 48 20 46.6569 20 45L26 45ZM20.8787 0.878681C22.0503 -0.292892 23.9497 -0.292892 25.1213 0.878681L44.2132 19.9706C45.3848 21.1421 45.3848 23.0416 44.2132 24.2132C43.0416 25.3848 41.1421 25.3848 39.9706 24.2132L23 7.24264L6.02944 24.2132C4.85787 25.3848 2.95837 25.3848 1.7868 24.2132C0.615224 23.0416 0.615224 21.1421 1.7868 19.9706L20.8787 0.878681ZM20 45L20 3L26 3L26 45L20 45Z" fill="#2E4765"/>
</svg>
