<svg width="27" height="32" viewBox="0 0 27 32" fill="none" xmlns="http://www.w3.org/2000/svg">
<path d="M13.5417 8.68472C15.0996 8.68472 16.3488 7.42157 16.3488 5.87771C16.3488 5.34437 16.2084 4.85315 15.9417 4.43209L13.5417 0.263672L11.1417 4.43209C10.8751 4.85315 10.7347 5.34437 10.7347 5.87771C10.7347 7.42157 11.9979 8.68472 13.5417 8.68472ZM19.9979 22.7058L18.4961 21.204L16.9803 22.7058C15.1558 24.5303 11.9558 24.5444 10.1172 22.7058L8.61542 21.204L7.0856 22.7058C6.17331 23.6181 4.95226 24.1233 3.66103 24.1233C2.63647 24.1233 1.69612 23.8005 0.910156 23.2672V29.7374C0.910156 30.5093 1.54174 31.1409 2.31367 31.1409H24.7698C25.5417 31.1409 26.1733 30.5093 26.1733 29.7374V23.2672C25.3874 23.8005 24.447 24.1233 23.4224 24.1233C22.1312 24.1233 20.9102 23.6181 19.9979 22.7058ZM21.9628 12.8953H14.9452V10.0882H12.1382V12.8953H5.12068C2.79086 12.8953 0.910156 14.776 0.910156 17.1058V19.2672C0.910156 20.783 2.14524 22.0181 3.66103 22.0181C4.39086 22.0181 5.09261 21.7374 5.59788 21.2181L8.60138 18.2286L11.5909 21.2181C12.6295 22.2567 14.44 22.2567 15.4786 21.2181L18.4821 18.2286L21.4716 21.2181C21.9909 21.7374 22.6786 22.0181 23.4084 22.0181C24.9242 22.0181 26.1593 20.783 26.1593 19.2672V17.1058C26.1733 14.776 24.2926 12.8953 21.9628 12.8953Z" fill="#2E4765"/>
</svg>
