<svg width="33" height="26" viewBox="0 0 33 26" fill="none" xmlns="http://www.w3.org/2000/svg">
<path d="M31.4472 5.8717L31.5289 5.90027V24.547C29.021 23.5743 26.7099 22.8168 24.3989 22.6186C21.8362 22.3987 19.3111 22.8676 16.52 24.3864C13.7098 22.8678 11.1753 22.3987 8.60723 22.6186C6.29156 22.8168 3.97992 23.5743 1.47188 24.547V5.90027L1.55352 5.8717L31.4472 5.8717ZM31.4472 5.8717V22.3594C31.4472 23.3813 30.429 24.0982 29.4489 23.7418L29.4358 23.7371L29.4229 23.7318C27.1105 22.7988 24.9445 22.3617 22.9195 22.3606C20.8879 22.4014 18.9802 22.8392 17.1479 23.6757L16.9896 23.7479H16.8157H16.1851H16.0111L15.8528 23.6757C14.0196 22.8388 12.1118 22.4014 10.1231 22.3606C8.09861 22.3617 5.93123 22.7986 3.57333 23.7336L31.4472 5.8717ZM15.0487 20.2177C13.4732 19.7196 11.821 19.4581 10.1393 19.4573C8.3082 19.4209 6.427 19.7 4.49884 20.2851V2.10612C8.14624 0.810248 11.6372 0.693961 15.0487 2.04076V20.2177ZM28.5019 20.2863C24.9635 19.2158 21.4284 19.1153 17.994 20.2141V2.0388C21.3703 0.694821 24.8897 0.810628 28.5019 2.10436V20.2863Z" stroke="#2E4765" stroke-width="1.6"/>
</svg>
