<?xml version="1.0" encoding="UTF-8"?>
<svg id="Layer_1" xmlns="http://www.w3.org/2000/svg" width="401.6" height="406.3" viewBox="0 0 401.6 406.3">
  <defs>
    <style>
      .cls-1 {
        fill: #2f4866;
      }
    </style>
  </defs>
  <polygon class="cls-1" points="395.6 358.1 395.5 358.1 395.5 358 395.6 358.1"/>
  <g>
    <g>
      <g>
        <path class="cls-1" d="M401.6,152.3c-.4-4.5-.7-9.1-1.9-13.4-2-7.2-4.1-14.4-7.1-21.2-4.1-9.4-9.9-17.7-18.6-23.5-.7-.5-1.2-1.5-1.4-2.4-.6-2.6-.8-5.4-1.4-8-.4-1.5-.9-3.1-1.4-4.6h0s0,0,0,0c-.2-.5-1.9-4.2-4.5-9.1-3.4-6.1-8.3-13.9-13.8-18.8-5.2-5.3-11-10-17.4-13.9-7.6-4.5-15.5-8-24.5-8.5-.7,0-1.4-.7-1.9-1.2-2.2-2.5-4.2-5.3-6.6-7.5C286.4,7.1,268.7,1.6,250.8,0c-5.3-.2-7.9,1.2-9.1,4.5-.4,1.1-.4,2.4-.6,3.6-1.4,8.2-2.8,16.4-4.2,24.6-1.9,11.9-3.7,23.8-5.5,35.6-1.3,8.3-2.5,16.6-3.8,24.9-1.3,8.2-2.8,16.4-4.1,24.6-1.2,7.5-2.3,15.1-3.5,22.7-.8,4.9-1.6,9.7-2.4,14.6-1.2,7.8-2.2,15.7-3.6,23.4-1.1,6.2,2.5,10,8.8,9,13.3-2.2,26.7-4.3,40-6.4,8.3-1.3,16.6-2.5,24.8-3.9,8.2-1.3,16.4-2.9,24.6-4.1,10.7-1.7,21.3-3.2,32-4.8,10.5-1.6,21-3.4,31.4-5,6.7-1.1,13.5-2.1,20.2-3.4,4-.8,6-3.5,5.7-7.6h0ZM348.9,153.7c-39.9,6.3-79.7,12.6-120.2,19,6.4-40.4,12.7-80.3,19.1-120.8,5.2,1.5,10,2.7,14.7,4.2,12.3,4,23.8,9.7,34.2,17.5,2.4,1.8,4.7,3.7,6.9,5.6,0,0,.2.1.2.2.2.1.3.3.5.5,0,0,.2.2.3.3.2.1.3.3.5.4,4.1,3.6,12.8,11.7,20.2,20.7h0c7.6,10,13.9,20.9,18.2,32.7,2.2,6.1,3.7,12.4,5.5,18.6,0,.3,0,.6,0,1.1h0ZM367,150.8c-4.6.6-4.3.3-5.5-4.2-1.8-7-4-13.9-6.5-20.6-2.9-7.6-6.6-14.8-10.9-21.6,0,0,0,0-.2-.2,0,0,0,0,0-.1-.8-1.2-3.7-5.4-7.5-10.6-5.1-6.7-12-15.1-18.4-20.2,0,0,0,0,0,0-7.4-6.7-15.4-12.6-24.2-17.7-9-5.2-18.3-9.5-28.2-12.7-4.4-1.4-8.9-2.4-13.4-3.4-1.7-.4-2.2-1.1-1.9-2.7.9-5.2,1.7-10.4,2.5-15.6.3-1.6.4-3.3.6-4.9.2-1.4.8-2.3,2.4-2,14.2,2.8,27.6,7.2,38,18,1.7,1.7,2.8,4,4,6.1,1.4,2.4,3,4.4,6.1,4.2,11.5-.8,20.9,4.2,29.4,11.1,3.1,2.5,6,5.4,8.8,8.3h0c.3.3,1.7,1.6,3.6,3.8,2.5,2.8,6,7,8.6,11.8,1.8,3.2,3.2,6.6,3.7,10.1h0c.7,2.9,1,5.8.7,8.9-.3,3.2,1.3,5.5,4.3,7,6.7,3.3,11.2,8.9,14.9,15.2,4.2,7.2,6.8,15,8.7,23.1.4,1.8.5,3.7.7,5.8-6.9,1.1-13.6,2.2-20.3,3.1h0Z"/>
        <path class="cls-1" d="M299.2,109.4c-1.8,11.1-5.4,22.4-16.8,29.8-6.7,4.3-13.9,6.4-21.6,7.1-3.5.3-5.7-2-5.4-5.4,1-11.5,4.6-21.8,13.8-29.3,7.2-5.9,15.7-8.5,24.9-9.1,3.4-.2,5.2,2,5.2,7h0ZM288.5,113.1c-12,1.1-21.6,11.5-22.3,22.5,13.7-2.9,20.4-11.5,22.3-22.5Z"/>
      </g>
      <g>
        <g>
          <path class="cls-1" d="M190.4,221.6c0,0,0-.2-.1-.2-.1-.2-.2-.5-.3-.7.1.9,0,1.7-.2,2.6.3-.5.5-1.1.7-1.7Z"/>
          <path class="cls-1" d="M361.2,248.5c7.9-18,7.5-36.5,3.4-54-1.5-5-3.6-7.1-7.1-7.2-1.2,0-2.4.4-3.6.6-8.2,1.2-16.4,2.4-24.6,3.8-11.9,1.9-23.7,4-35.6,5.9-8.3,1.4-16.5,2.8-24.8,4.2-8.2,1.3-16.4,2.5-24.6,3.8-7.5,1.2-15.1,2.5-22.6,3.8-4.9.8-9.8,1.5-14.6,2.3-5.1.9-10.2,1.8-15.4,2.7,1.7-11.4,3.5-22.9,5.3-34.3,1.3-8.3,2.7-16.6,3.9-24.8,1.2-8.2,2.3-16.4,3.6-24.6,1.7-10.6,3.5-21.3,5.2-31.9,1.7-10.5,3.2-21,4.8-31.5,1-6.7,2.1-13.5,3-20.2.5-4-1.5-6.8-5.5-7.7-4.4-1-8.9-2.1-13.3-2.3-7.4-.3-15-.5-22.3.3-10.2,1-19.9,4-28.1,10.5-.7.5-1.8.7-2.7.6-2.7-.3-5.4-.9-8-1.1-1.6,0-3.2-.1-4.8-.1h0c-.5,0-4.6.5-10,1.5-6.8,1.3-15.8,3.6-22.1,7.4-6.7,3.3-12.9,7.4-18.5,12.3-6.6,5.8-12.3,12.4-15.6,20.8-.2.6-1.1,1.1-1.7,1.4-3,1.4-6.3,2.3-9.2,4-17,9.9-27.6,25.1-34.5,41.6-.2.7-.4,1.3-.6,1.9-2.3,3.8-4.7,7.6-6.3,11.7-2.7,7-5.2,14-6.8,21.3-2.2,10-2.5,20.1,1.1,30,.3.8,0,1.9-.3,2.8-1.1,2.5-2.6,4.8-3.6,7.3-.6,1.5-1.1,3-1.6,4.5h0c-.1.5-1,4.6-1.7,10-.9,6.9-1.5,16.1,0,23.3,1,7.4,2.9,14.6,5.8,21.5,3.4,8.2,7.8,15.6,14.8,21.3.5.4.7,1.3.8,2.1.3,3.3.2,6.8.9,10,4,19.2,15,34.1,28.5,46,0,0,.2.2.3.2.3.8.8,1.6,1.5,2.3,2.9,3.4,5.9,7,9.4,9.8,5.8,4.7,11.7,9.3,18.1,13,8.8,5.2,18.4,8.5,28.9,8.2.9,0,1.9.5,2.5,1.1,2,1.8,3.8,3.9,5.8,5.6,1.2,1,2.5,2,3.8,2.9h0s0,0,0,0c.4.2,4,2.3,9,4.7,6.3,3,14.8,6.4,22.2,7.2,7.3,1.3,14.8,1.7,22.3,1.1,8.8-.7,17.2-2.6,24.8-7.5.5-.3,1.5-.3,2.2-.1,3.3.7,6.5,1.9,9.8,2.2,19.5,2.1,37.1-3.8,52.5-13,1.3-.9,2.3-1.7,3.1-2.6,3.9-1.7,7.9-3.3,11.4-5.7,6.2-4.1,12.4-8.4,17.9-13.3,7.6-6.8,13.7-15,16.5-25.1.2-.8,1.1-1.6,1.8-2.1,2.3-1.4,4.9-2.4,7.1-3.9,1.3-.9,2.7-1.8,3.9-2.7h0s0,0,0,0c.4-.3,3.4-3.1,7.2-7.1,4.8-5.1,10.6-12.2,13.5-19,3.4-6.6,6.1-13.5,7.7-20.9,2-8.6,2.7-17.2.3-26-.2-.6.2-1.5.6-2.2,1.7-2.9,3.8-5.6,5.1-8.7h0ZM314.3,208c.2,5.3.6,10.3.6,15.2,0,13-1.7,25.7-5.9,37.9-1,2.8-2,5.6-3.2,8.3,0,0,0,.2-.1.3,0,.2-.2.4-.3.7,0,.1-.1.2-.2.4,0,.2-.2.4-.2.6-2.1,5-7,15.8-13.3,25.7h0c-7.1,10.4-15.5,19.7-25.3,27.5-5.1,4-10.6,7.4-15.9,11-.2.2-.6.2-1.1.2-18.5-35.9-37-71.8-55.7-108.2,40.4-6.6,80.3-13.1,120.7-19.7h0ZM111.3,333.2c-5.3-3.6-10.2-7.9-15.3-11.9-.2-.2-.3-.5-.6-1,28.7-28.5,57.3-56.9,86.4-85.8,18.5,36.5,36.7,72.6,55.1,109.1-5,1.8-9.7,3.7-14.4,5.2-12.3,4-25,6.1-37.9,5.8-3,0-5.9-.3-8.9-.5,0,0-.2,0-.3,0-.2,0-.5,0-.7,0-.1,0-.3,0-.4,0-.2,0-.4,0-.6,0-5.4-.5-17.2-2-28.5-4.9h0c-12-3.7-23.4-8.8-33.8-15.9h0ZM189.7,223.3c.2-.9.3-1.8.2-2.6.1.2.2.5.3.7,0,0,0,.2.1.2-.2.6-.4,1.2-.7,1.7ZM56.2,186.9c1.8-6.2,4.3-12.2,6.6-18.2,0-.3.4-.5.7-.9,35.9,18.5,71.8,37,108.2,55.8-29.1,28.8-57.8,57.2-86.9,86-3.3-4.2-6.5-8-9.3-12.1-7.6-10.5-13.5-21.9-17.2-34.3-.9-2.8-1.6-5.7-2.2-8.6,0,0,0-.2,0-.3,0-.2-.1-.5-.2-.7s0-.3,0-.4c0-.2,0-.4-.1-.6-1.1-5.3-3.4-17-4.1-28.6h0c-.2-12.6,1.1-25,4.7-37.1h0ZM178.5,209.9c-36.5-18.5-72.6-36.7-109.1-55.1,3-4.5,5.6-8.7,8.5-12.7,7.6-10.5,16.5-19.7,27.1-27.2,2.4-1.7,4.9-3.3,7.5-4.9,0,0,.2-.1.3-.2.2-.1.4-.2.6-.4.1,0,.2-.1.4-.2.2-.1.4-.2.5-.3,4.7-2.8,15-8.6,25.9-12.9h0c11.9-4.2,24.1-6.8,36.7-7.3,6.4-.2,12.9.3,19.4.5.3,0,.6.2,1,.4-6.2,39.9-12.3,79.8-18.6,120.3h0ZM35.7,135.7c7-12.6,15.3-24.1,28.8-30.6,2.2-1,4.7-1.4,7-2,2.7-.6,5.1-1.5,5.9-4.5,2.8-11.2,10.4-18.6,19.5-24.6,3.4-2.2,7-4,10.6-5.8h0c.3-.2,2.1-1.2,4.6-2.3,3.5-1.6,8.5-3.5,13.9-4.6,3.6-.7,7.3-1,10.7-.5h0c2.9.2,5.8.9,8.7,2.1,3,1.3,5.6.5,8-2,5.2-5.4,11.9-7.9,19-9.5,8.1-1.8,16.4-1.9,24.7-1.2,1.9.2,3.7.7,5.8,1.1-1.1,6.9-2,13.6-3.2,20.3-.8,4.6-1,4.2-5.7,3.9-7.2-.4-14.4-.5-21.6,0-8.1.5-16.1,1.8-23.9,3.8,0,0-.1,0-.3,0,0,0,0,0-.1,0-1.4.4-6.3,1.8-12.4,4-8,2.8-18,6.8-24.9,11.3,0,0,0,0,0,0-8.6,5-16.7,10.8-24.2,17.6-7.7,7-14.7,14.6-20.7,23-2.7,3.7-5,7.7-7.4,11.7-.9,1.5-1.7,1.8-3.2,1-4.7-2.4-9.4-4.8-14.1-7.2-1.5-.7-3-1.4-4.5-2.1-1.3-.6-1.9-1.4-1.1-2.9h0ZM36.1,298.4c-.3-2.4.1-4.9.4-7.3.3-2.8.2-5.4-2.4-7-9.8-6.2-14.4-15.8-17.2-26.3-1-3.9-1.6-7.9-2.2-11.9h0c0-.4-.4-2.4-.7-5.2-.4-3.8-.6-9.2,0-14.6.5-3.6,1.4-7.2,3-10.3h0c1.1-2.7,2.7-5.3,4.8-7.6,2.1-2.5,2.2-5.2.7-8.2-3.5-6.6-3.8-13.8-3-21,.9-8.3,3.4-16.2,6.7-23.8.7-1.7,1.8-3.3,2.8-5.1,6.2,3.2,12.3,6.2,18.2,9.5,4.1,2.2,3.6,2.2,1.9,6.6-2.6,6.7-5,13.5-6.9,20.5-2.1,7.8-3.4,15.8-4,23.9v.3h0c0,1.6-.3,6.7-.2,13.1.1,8.5.7,19.2,2.8,27.2,0,0,0,0,0,0,2,9.7,5,19.2,9,28.5,4.1,9.5,9.2,18.5,15.2,26.9,2.7,3.7,5.7,7.2,8.7,10.7,1.1,1.3,1.1,2.2,0,3.3-3.8,3.7-7.5,7.4-11.3,11.1-1.2,1.2-2.2,2.4-3.4,3.6-1,1-2,1.4-3.1.1-9.8-10.7-18-22.2-19.9-37h0ZM252.5,379.1c-13.2,6-26.6,10.3-41.3,7.6-2.3-.4-4.6-1.6-6.8-2.6-2.5-1.1-5-1.8-7.4.2-8.9,7.4-19.4,8.8-30.3,8.2-4-.2-8-.9-12-1.6h0c-.4,0-2.3-.3-5.1-.9-3.7-.8-8.9-2.2-13.9-4.5-3.3-1.5-6.4-3.5-8.9-6q-1.7-1.6,0,0c-2.2-1.9-4.2-4.2-5.8-6.8-1.7-2.8-4.3-3.7-7.6-3.2-7.4,1.3-14.3-.7-21-3.7-7.6-3.4-14.3-8.2-20.6-13.7-1.4-1.2-2.6-2.7-4-4.3,4.9-4.9,9.7-9.8,14.7-14.4,3.4-3.2,3.3-2.8,6.9.2,5.6,4.6,11.3,9,17.4,12.9,6.8,4.4,14,8.1,21.5,11.1,0,0,0,0,.3.1,0,0,0,0,.1,0,1.4.5,6.1,2.3,12.3,4.2,8.1,2.5,18.5,5.2,26.7,5.7h0c9.9,1.1,19.9,1.2,29.9.2,10.3-1,20.4-3,30.3-6.2,4.4-1.4,8.6-3.2,12.8-5,1.6-.7,2.4-.4,3.2,1.1,2.3,4.7,4.7,9.5,7.1,14.2.7,1.5,1.6,2.9,2.4,4.3.7,1.2.7,2.3-.8,3h0ZM347.5,245.4c-1.1,2.1-2.9,3.9-4.5,5.7-1.8,2.1-3.2,4.3-2.1,7.1,4.4,10.7,2.6,21.2-1.3,31.4-1.4,3.8-3.3,7.4-5.2,11h0s0,0,0,0c-.2.3-1,2.1-2.4,4.6-1.9,3.3-4.8,7.9-8.5,11.8-2.5,2.7-5.3,5.1-8.4,6.7h0c-2.5,1.6-5.2,2.7-8.3,3.4-3.2.7-4.8,2.9-5.3,6.3-1,7.4-4.9,13.4-9.8,18.9-5.5,6.2-12.2,11.2-19.3,15.5-1.6,1-3.4,1.6-5.3,2.5-3.2-6.2-6.4-12.2-9.3-18.3-2-4.2-1.7-4,2.3-6.5,6-3.9,12-8.1,17.5-12.7,6.3-5.2,11.9-10.9,17.1-17.1,0,0,0,0,.2-.2,0,0,0,0,0-.1.9-1.1,4-5.2,7.7-10.5,4.8-7,10.6-16.1,13.5-23.8,0,0,0,0,0,0,4-9.1,7.1-18.6,9.2-28.5,2.2-10.2,3.3-20.4,3.2-30.7,0-4.6-.5-9.2-.9-13.8-.2-1.7.3-2.4,2-2.7,5.2-.8,10.4-1.6,15.6-2.5,1.6-.3,3.2-.7,4.8-1,1.4-.3,2.4,0,2.6,1.7,1.8,14.3,1.8,28.5-5.2,41.7h0Z"/>
          <path class="cls-1" d="M139.6,123.5c10,5.1,19.7,12,23.2,25.1,2,7.7,1.8,15.2.2,22.8-.8,3.4-3.6,4.8-6.8,3.5-10.6-4.4-19.3-11-23.7-22.1-3.4-8.7-3.3-17.6-1.1-26.5.8-3.3,3.5-4.3,8.3-2.8h0ZM140,134.8c-2.6,11.8,4.4,24.1,14.6,28.1,1.4-13.9-4.7-22.9-14.6-28.1Z"/>
        </g>
        <path class="cls-1" d="M77.4,233c8-7.9,17.6-14.9,31.2-14,7.9.5,15,3.1,21.6,7.1,3,1.8,3.4,5,1.1,7.6-7.6,8.7-16.6,14.8-28.5,15.5-9.3.5-17.7-2.5-25.5-7.4-2.8-1.8-3-4.7,0-8.7h0ZM88.2,236.2c10.4,6.2,24.2,3.5,31.3-4.9-12.7-5.8-23.2-2.8-31.3,4.9Z"/>
        <g>
          <path class="cls-1" d="M190.4,221.6c0,0,0-.2-.1-.2-.1-.2-.2-.5-.3-.7.1.9,0,1.7-.2,2.6.3-.5.5-1.1.7-1.7Z"/>
          <path class="cls-1" d="M161.6,327.3c-5-10-8.7-21.3-3.7-34,2.9-7.4,7.5-13.3,13.4-18.4,2.6-2.3,5.8-1.7,7.6,1.2,5.9,9.9,9,20.3,6,31.9-2.4,9-7.8,16.1-14.9,22-2.6,2.2-5.4,1.4-8.3-2.7h0ZM168.1,318c9.1-8,10.8-22,5-31.3-9.4,10.3-9.8,21.2-5,31.3Z"/>
        </g>
      </g>
    </g>
    <g>
      <path class="cls-1" d="M190.4,221.6c0,0,0-.2-.1-.2-.1-.2-.2-.5-.3-.7.1.9,0,1.7-.2,2.6.3-.5.5-1.1.7-1.7Z"/>
      <path class="cls-1" d="M275.9,274.7c-11.1,1.8-23,1.9-33.5-6.7-6.2-5-10.4-11.2-13.5-18.3-1.4-3.2,0-6,3.5-6.8,11.2-2.7,22.1-2.5,32.2,3.9,7.9,5,13,12.3,16.5,20.8,1.3,3.1-.2,5.5-5.1,7.1h0ZM269,265.8c-4.8-11-17.7-16.9-28.3-14.2,7,12.1,17.3,15.8,28.3,14.2Z"/>
    </g>
  </g>
</svg>