<?xml version="1.0" encoding="UTF-8"?>
<svg id="Layer_1" xmlns="http://www.w3.org/2000/svg" viewBox="0 0 1080 1080">
  <defs>
    <style>
      .cls-1 {
        fill: #2f4866;
      }
    </style>
  </defs>
  <polygon class="cls-1" points="943.86 498.85 943.86 499.43 943.88 498.99 943.86 498.85"/>
  <polygon class="cls-1" points="734.78 694.97 734.7 694.97 734.7 694.88 734.78 694.97"/>
  <g>
    <g>
      <g>
        <path class="cls-1" d="M740.78,489.14c-.39-4.5-.67-9.1-1.86-13.43-1.96-7.18-4.1-14.39-7.07-21.19-4.1-9.37-9.92-17.66-18.63-23.54-.7-.47-1.21-1.51-1.4-2.38-.57-2.64-.75-5.38-1.44-7.99-.41-1.55-.86-3.08-1.37-4.59,0,0,0,0,0-.01s0-.02-.01-.03c-.21-.47-1.87-4.24-4.52-9.07-3.36-6.1-8.28-13.89-13.8-18.76-5.21-5.32-10.96-10.01-17.42-13.89-7.57-4.55-15.53-7.96-24.52-8.46-.65-.03-1.38-.67-1.87-1.21-2.24-2.5-4.16-5.33-6.63-7.55-14.61-13.13-32.3-18.58-50.22-20.17-5.26-.2-7.86,1.24-9.09,4.52-.42,1.12-.36,2.42-.56,3.63-1.39,8.19-2.85,16.36-4.15,24.56-1.9,11.87-3.67,23.76-5.5,35.64-1.27,8.29-2.49,16.59-3.82,24.87-1.32,8.2-2.78,16.37-4.11,24.56-1.22,7.54-2.32,15.11-3.51,22.66-.77,4.88-1.64,9.73-2.4,14.61-1.21,7.81-2.22,15.66-3.57,23.44-1.08,6.25,2.53,10.02,8.85,8.99,13.32-2.17,26.65-4.27,39.98-6.37,8.28-1.31,16.57-2.51,24.85-3.86,8.19-1.33,16.36-2.85,24.56-4.14,10.65-1.68,21.33-3.17,31.98-4.83,10.49-1.63,20.96-3.35,31.44-5.04,6.73-1.09,13.48-2.08,20.18-3.37,3.99-.77,6-3.52,5.65-7.61ZM688.15,490.55c-39.89,6.32-79.74,12.64-120.2,19.05,6.4-40.43,12.72-80.33,19.12-120.75,5.15,1.47,9.97,2.67,14.67,4.2,12.31,4,23.84,9.66,34.16,17.46,2.37,1.79,4.66,3.68,6.92,5.62.07.06.15.12.23.19.16.14.35.3.55.48.1.08.2.18.31.27.15.13.31.27.48.42,4.06,3.59,12.83,11.66,20.22,20.67,0,0,0,0,0,0,7.63,10.02,13.86,20.85,18.15,32.67,2.2,6.06,3.7,12.38,5.49,18.59.08.28-.05.62-.1,1.12ZM706.23,487.62c-4.64.61-4.27.34-5.47-4.21-1.84-6.97-3.95-13.9-6.55-20.61-2.94-7.56-6.63-14.75-10.93-21.59,0,0-.05-.08-.16-.24-.02-.03-.05-.07-.07-.11-.81-1.21-3.66-5.44-7.55-10.56-5.1-6.74-11.98-15.07-18.37-20.25-.01-.01-.03-.03-.04-.04-7.36-6.69-15.42-12.57-24.17-17.67-8.98-5.23-18.34-9.5-28.18-12.71-4.36-1.43-8.88-2.41-13.36-3.43-1.66-.38-2.2-1.09-1.93-2.71.89-5.2,1.72-10.41,2.54-15.62.26-1.62.39-3.27.61-4.9.19-1.4.78-2.27,2.44-1.95,14.18,2.8,27.61,7.25,37.95,18.04,1.66,1.73,2.79,4.01,4.03,6.11,1.4,2.38,3.03,4.42,6.1,4.2,11.5-.8,20.92,4.21,29.42,11.06,3.13,2.52,5.98,5.41,8.8,8.33,0,0,0,0,0,0l.04.04c.28.26,1.71,1.61,3.61,3.71,2.55,2.83,5.96,7.02,8.58,11.79,1.76,3.18,3.16,6.62,3.73,10.07,0,0,0,.01,0,.02.67,2.87.95,5.82.67,8.92-.29,3.25,1.28,5.51,4.3,6.99,6.74,3.28,11.18,8.9,14.86,15.21,4.2,7.22,6.81,15.05,8.67,23.14.42,1.82.49,3.71.74,5.81-6.86,1.07-13.58,2.24-20.33,3.14Z"/>
        <path class="cls-1" d="M638.41,446.22c-1.78,11.08-5.39,22.4-16.83,29.75-6.68,4.29-13.91,6.37-21.62,7.11-3.47.33-5.7-1.97-5.4-5.42.98-11.46,4.59-21.76,13.81-29.34,7.21-5.92,15.73-8.5,24.89-9.12,3.36-.23,5.19,1.97,5.15,7.03ZM627.75,449.97c-12.02,1.15-21.6,11.55-22.33,22.48,13.67-2.88,20.39-11.46,22.33-22.48Z"/>
      </g>
      <g>
        <g>
          <path class="cls-1" d="M529.58,558.5c-.05-.08-.09-.17-.13-.25-.11-.23-.23-.47-.35-.68.13.86.06,1.73-.19,2.62.27-.51.49-1.08.67-1.69Z"/>
          <path class="cls-1" d="M700.41,585.35c7.89-17.99,7.53-36.49,3.42-54.01-1.46-5.05-3.64-7.07-7.14-7.21-1.2-.05-2.42.42-3.63.6-8.21,1.25-16.43,2.42-24.62,3.75-11.87,1.92-23.71,3.96-35.56,5.94-8.27,1.39-16.54,2.84-24.82,4.17-8.2,1.32-16.42,2.48-24.62,3.8-7.55,1.2-15.07,2.53-22.61,3.76-4.87.8-9.75,1.49-14.63,2.3-5.13.86-10.25,1.8-15.38,2.67,1.72-11.43,3.51-22.86,5.28-34.28,1.28-8.28,2.67-16.56,3.93-24.84,1.24-8.21,2.29-16.44,3.56-24.65,1.66-10.65,3.5-21.27,5.18-31.92,1.66-10.49,3.22-20.99,4.81-31.48,1.02-6.74,2.14-13.48,2.96-20.24.49-4.04-1.51-6.79-5.52-7.71-4.4-1.01-8.87-2.14-13.35-2.34-7.44-.33-14.96-.49-22.34.26-10.18,1.04-19.85,4.04-28.11,10.54-.66.52-1.81.69-2.69.6-2.7-.26-5.36-.93-8.05-1.07-1.6-.08-3.2-.13-4.79-.1h-.06c-.5.06-4.61.48-10.01,1.54-6.84,1.33-15.76,3.65-22.08,7.41-6.66,3.33-12.89,7.37-18.55,12.34-6.64,5.83-12.33,12.36-15.56,20.76-.23.61-1.06,1.12-1.72,1.41-3.05,1.37-6.34,2.34-9.21,4.01-16.97,9.89-27.57,25.07-34.55,41.65-.23.66-.44,1.28-.59,1.86-2.31,3.78-4.73,7.58-6.31,11.69-2.66,6.95-5.21,14.02-6.83,21.26-2.23,9.98-2.46,20.1,1.09,30,.28.79.08,1.94-.28,2.75-1.1,2.48-2.58,4.78-3.56,7.3-.59,1.49-1.14,2.99-1.62,4.51h0s0,.04,0,.05c-.11.5-1,4.53-1.72,10-.9,6.91-1.54,16.09.03,23.28,1.04,7.38,2.9,14.56,5.83,21.51,3.41,8.15,7.81,15.61,14.76,21.34.5.41.72,1.35.79,2.08.33,3.33.2,6.76.87,10.01,4.01,19.23,15.04,34.08,28.55,45.97.09.07.19.15.28.21.33.79.83,1.58,1.49,2.35,2.94,3.42,5.86,6.99,9.35,9.81,5.79,4.67,11.74,9.27,18.13,13.05,8.8,5.19,18.37,8.52,28.88,8.2.85-.03,1.87.52,2.53,1.11,2.01,1.81,3.76,3.93,5.84,5.64,1.24,1.02,2.49,2,3.8,2.93h0s.02.02.04.03c.44.25,3.99,2.35,8.97,4.71,6.29,2.99,14.83,6.42,22.17,7.15,7.33,1.27,14.75,1.71,22.25,1.07,8.8-.74,17.25-2.62,24.84-7.47.55-.35,1.52-.27,2.22-.11,3.28.72,6.49,1.89,9.8,2.24,19.52,2.11,37.06-3.82,52.52-13.01,1.31-.87,2.35-1.72,3.13-2.58,3.92-1.67,7.92-3.32,11.44-5.66,6.21-4.11,12.39-8.4,17.91-13.35,7.61-6.83,13.66-14.96,16.52-25.07.23-.81,1.06-1.62,1.82-2.08,2.33-1.37,4.88-2.4,7.14-3.87,1.34-.87,2.66-1.78,3.93-2.74,0,0,0,0,.02,0,0,0,0-.02.03-.03.37-.34,3.44-3.11,7.19-7.14,4.75-5.1,10.59-12.22,13.49-18.99,3.42-6.62,6.08-13.55,7.72-20.89,1.95-8.62,2.7-17.24.35-25.95-.17-.62.2-1.52.57-2.15,1.67-2.9,3.75-5.62,5.09-8.66ZM653.55,544.85c.22,5.35.58,10.3.61,15.24.06,12.95-1.71,25.68-5.87,37.91-.96,2.81-2.04,5.57-3.17,8.34-.04.08-.07.18-.11.27-.08.2-.18.43-.28.67-.06.12-.11.25-.17.38-.07.2-.16.38-.24.6-2.14,4.98-7.05,15.83-13.3,25.68,0,0,0,0,0,0-7.13,10.39-15.46,19.69-25.34,27.47-5.07,3.99-10.6,7.4-15.93,11.05-.24.17-.6.15-1.1.25-18.5-35.89-36.98-71.76-55.74-108.18,40.4-6.59,80.27-13.08,120.67-19.67ZM450.47,670.08c-5.33-3.63-10.25-7.88-15.33-11.87-.23-.18-.33-.53-.58-.97,28.66-28.46,57.29-56.89,86.35-85.75,18.45,36.55,36.67,72.6,55.12,109.14-5.04,1.82-9.65,3.66-14.36,5.17-12.32,3.96-24.99,6.1-37.92,5.83-2.96-.06-5.93-.27-8.9-.52-.09,0-.2,0-.3-.02-.21-.02-.46-.04-.73-.06-.13,0-.27-.03-.41-.04-.2-.02-.42-.04-.64-.06-5.39-.53-17.22-1.95-28.49-4.94,0,0,0,0,0,0-12.05-3.67-23.44-8.8-33.84-15.89ZM528.91,560.2c.25-.89.32-1.77.19-2.62.12.21.24.45.35.68.04.08.08.17.13.25-.18.61-.4,1.18-.67,1.69ZM395.44,523.72c1.81-6.2,4.34-12.17,6.57-18.24.09-.28.41-.47.74-.85,35.89,18.51,71.75,37,108.16,55.77-29.08,28.8-57.78,57.22-86.87,86.03-3.28-4.22-6.45-8.05-9.33-12.07-7.56-10.5-13.5-21.9-17.21-34.28-.86-2.84-1.58-5.72-2.25-8.63-.03-.09-.05-.19-.07-.29-.05-.21-.1-.45-.16-.71-.03-.13-.06-.27-.09-.41-.05-.2-.09-.4-.14-.62-1.14-5.3-3.43-16.98-4.07-28.63h.02c-.22-12.59,1.15-25.01,4.7-37.08ZM517.66,546.79c-36.54-18.45-72.59-36.67-109.13-55.12,2.97-4.46,5.59-8.67,8.49-12.68,7.57-10.49,16.49-19.74,27.06-27.18,2.42-1.71,4.93-3.31,7.46-4.88.08-.05.17-.1.26-.16.18-.11.38-.23.61-.37.11-.07.23-.14.35-.21.18-.1.36-.21.55-.33,4.66-2.77,15.02-8.65,25.86-12.94,0,0,0,0,0,0,11.87-4.2,24.08-6.82,36.66-7.3,6.44-.24,12.92.26,19.39.46.29,0,.57.23,1.03.44-6.18,39.91-12.35,79.78-18.61,120.27ZM374.95,472.52c7-12.65,15.34-24.08,28.78-30.63,2.16-1.05,4.66-1.42,7.05-1.96,2.69-.6,5.13-1.54,5.86-4.53,2.75-11.2,10.4-18.62,19.52-24.62,3.36-2.21,6.98-4.03,10.62-5.83h0s.05-.04.05-.04c.33-.19,2.06-1.14,4.64-2.3,3.47-1.56,8.51-3.53,13.85-4.56,3.56-.7,7.27-.99,10.73-.47,0,0,.02,0,.03,0,2.93.23,5.83.87,8.69,2.08,3.02,1.28,5.65.47,7.97-1.95,5.18-5.42,11.89-7.93,19.03-9.49,8.15-1.8,16.41-1.89,24.68-1.19,1.86.17,3.69.68,5.76,1.07-1.07,6.86-2.01,13.62-3.22,20.32-.84,4.61-.99,4.16-5.68,3.91-7.19-.37-14.44-.48-21.64-.06-8.1.48-16.07,1.81-23.89,3.81,0,0-.1.03-.28.08-.05,0-.08.03-.13.04-1.41.4-6.3,1.82-12.37,3.96-7.98,2.79-18.01,6.8-24.9,11.3-.02,0-.04.02-.05.03-8.62,4.96-16.69,10.84-24.22,17.61-7.72,6.95-14.66,14.56-20.72,22.95-2.7,3.71-5.02,7.71-7.35,11.67-.87,1.46-1.7,1.76-3.16,1.01-4.69-2.44-9.39-4.82-14.1-7.19-1.47-.74-3-1.38-4.48-2.08-1.28-.61-1.93-1.43-1.11-2.91ZM375.32,635.21c-.32-2.37.12-4.88.36-7.31.28-2.75.17-5.36-2.43-7-9.75-6.16-14.37-15.77-17.17-26.33-1.03-3.89-1.61-7.9-2.16-11.92,0,0,0,0,0,0v-.06c-.07-.38-.44-2.31-.72-5.13-.39-3.79-.65-9.19.06-14.58.47-3.6,1.37-7.2,2.95-10.33,0,0,0,0,0-.02,1.15-2.71,2.69-5.25,4.75-7.58,2.15-2.46,2.23-5.2.66-8.18-3.49-6.64-3.75-13.79-2.97-21.05.88-8.3,3.41-16.16,6.7-23.79.74-1.71,1.81-3.28,2.84-5.13,6.16,3.19,12.27,6.23,18.25,9.5,4.1,2.25,3.64,2.25,1.92,6.63-2.64,6.7-5.04,13.54-6.92,20.49-2.1,7.84-3.39,15.81-3.96,23.87,0,0,0,.1,0,.29,0,.05,0,.08,0,.14-.06,1.45-.26,6.54-.17,12.98.12,8.45.74,19.24,2.82,27.19,0,.02,0,.04.02.06,1.97,9.74,4.99,19.25,9.03,28.55,4.13,9.53,9.16,18.51,15.19,26.92,2.67,3.73,5.73,7.19,8.74,10.66,1.12,1.28,1.13,2.18-.05,3.32-3.8,3.68-7.55,7.38-11.3,11.09-1.16,1.15-2.24,2.4-3.39,3.58-.99,1.01-1.97,1.37-3.12.13-9.77-10.66-17.97-22.19-19.92-37.01ZM591.7,715.98c-13.15,6.03-26.63,10.27-41.35,7.57-2.35-.44-4.6-1.63-6.84-2.61-2.53-1.11-5.04-1.81-7.41.17-8.86,7.38-19.43,8.81-30.33,8.23-4.02-.21-8.01-.89-12.01-1.61h-.07c-.39-.06-2.34-.32-5.1-.91-3.73-.8-8.94-2.21-13.86-4.55-3.28-1.55-6.43-3.52-8.92-5.98t-.02-.02c-2.22-1.94-4.17-4.17-5.76-6.85-1.67-2.8-4.26-3.72-7.58-3.15-7.38,1.28-14.28-.68-20.95-3.66-7.62-3.4-14.32-8.22-20.57-13.7-1.4-1.23-2.57-2.73-4-4.28,4.93-4.88,9.71-9.75,14.66-14.43,3.41-3.21,3.26-2.77,6.9.21,5.56,4.58,11.33,8.97,17.37,12.9,6.8,4.41,14.01,8.09,21.49,11.11,0,0,.09.04.27.11.05,0,.08.02.13.05,1.37.5,6.15,2.26,12.3,4.15,8.08,2.49,18.53,5.22,26.74,5.69.03,0,.05,0,.06,0,9.88,1.12,19.86,1.17,29.94.2,10.34-1.01,20.44-3.02,30.29-6.17,4.37-1.39,8.61-3.23,12.84-5.03,1.56-.67,2.42-.4,3.15,1.07,2.33,4.74,4.69,9.46,7.07,14.15.74,1.47,1.6,2.89,2.37,4.34.66,1.25.7,2.3-.84,3ZM686.73,582.26c-1.12,2.12-2.93,3.91-4.54,5.74-1.82,2.07-3.24,4.26-2.08,7.11,4.37,10.67,2.56,21.18-1.28,31.4-1.42,3.77-3.27,7.37-5.16,10.96,0,0,0,0,0,.02l-.02.05c-.17.35-1,2.13-2.4,4.59-1.88,3.31-4.8,7.86-8.51,11.85-2.48,2.66-5.3,5.07-8.4,6.69l-.02.02c-2.51,1.54-5.23,2.72-8.26,3.42-3.17.74-4.84,2.94-5.29,6.27-1.01,7.43-4.94,13.41-9.79,18.87-5.54,6.25-12.15,11.19-19.26,15.49-1.59.96-3.37,1.62-5.29,2.52-3.16-6.17-6.38-12.19-9.34-18.32-2.04-4.22-1.67-3.95,2.28-6.51,6.04-3.93,11.97-8.11,17.52-12.68,6.26-5.16,11.93-10.92,17.08-17.14,0,0,.07-.07.18-.22.03-.04.06-.07.09-.11.89-1.14,4.01-5.17,7.66-10.48,4.81-6.95,10.56-16.09,13.49-23.78,0-.02.02-.04.02-.06,4.05-9.09,7.11-18.58,9.21-28.5,2.16-10.16,3.28-20.39,3.25-30.74-.02-4.59-.49-9.19-.94-13.76-.16-1.68.35-2.43,1.97-2.67,5.22-.79,10.43-1.64,15.63-2.48,1.62-.26,3.23-.65,4.84-.95,1.4-.26,2.41.02,2.61,1.7,1.79,14.34,1.77,28.49-5.25,41.69Z"/>
          <path class="cls-1" d="M478.85,460.33c10,5.08,19.68,11.98,23.18,25.12,2.04,7.67,1.82,15.19.16,22.75-.75,3.41-3.62,4.82-6.82,3.48-10.61-4.43-19.32-11.02-23.71-22.11-3.44-8.67-3.29-17.58-1.08-26.49.81-3.27,3.46-4.34,8.27-2.76ZM479.16,471.63c-2.58,11.79,4.4,24.09,14.58,28.13,1.44-13.89-4.68-22.92-14.58-28.13Z"/>
        </g>
        <path class="cls-1" d="M416.61,569.81c7.99-7.87,17.6-14.86,31.17-14.02,7.92.49,14.98,3.09,21.63,7.06,2.99,1.79,3.42,4.96,1.14,7.57-7.57,8.66-16.58,14.83-28.49,15.48-9.32.51-17.71-2.45-25.46-7.37-2.84-1.81-3.02-4.66,0-8.72ZM427.43,573.1c10.36,6.19,24.24,3.47,31.3-4.91-12.72-5.77-23.22-2.82-31.3,4.91Z"/>
        <g>
          <path class="cls-1" d="M529.58,558.5c-.05-.08-.09-.17-.13-.25-.11-.23-.23-.47-.35-.68.13.86.06,1.73-.19,2.62.27-.51.49-1.08.67-1.69Z"/>
          <path class="cls-1" d="M500.84,664.12c-5.03-10.03-8.73-21.32-3.74-33.97,2.91-7.39,7.55-13.3,13.38-18.41,2.62-2.3,5.77-1.73,7.55,1.24,5.91,9.87,9.01,20.34,5.96,31.87-2.38,9.02-7.79,16.1-14.85,21.96-2.59,2.15-5.36,1.44-8.29-2.69ZM507.29,654.84c9.08-7.96,10.76-22,4.96-31.29-9.4,10.33-9.83,21.22-4.96,31.29Z"/>
        </g>
      </g>
    </g>
    <g>
      <path class="cls-1" d="M529.58,558.5c-.05-.08-.09-.17-.13-.25-.11-.23-.23-.47-.35-.68.13.86.06,1.73-.19,2.62.27-.51.49-1.08.67-1.69Z"/>
      <path class="cls-1" d="M615.15,611.58c-11.08,1.78-22.96,1.9-33.52-6.67-6.17-5-10.41-11.21-13.52-18.3-1.4-3.19.09-6.03,3.46-6.83,11.19-2.66,22.11-2.46,32.19,3.92,7.88,4.99,13,12.28,16.46,20.78,1.27,3.12-.25,5.55-5.06,7.1ZM608.25,602.62c-4.85-11.05-17.74-16.89-28.34-14.16,7.02,12.08,17.27,15.77,28.34,14.16Z"/>
    </g>
  </g>
</svg>