<svg width="22" height="16" viewBox="0 0 22 16" fill="none" xmlns="http://www.w3.org/2000/svg">
<path d="M20.625 2.73214H1.375C0.89375 2.73214 0.5 2.25804 0.5 1.67857C0.5 1.09911 0.89375 0.625 1.375 0.625H20.625C21.1063 0.625 21.5 1.09911 21.5 1.67857C21.5 2.25804 21.1063 2.73214 20.625 2.73214Z" fill="#2E4765"/>
<path d="M20.625 9.05343H1.375C0.89375 9.05343 0.5 8.57932 0.5 7.99986C0.5 7.4204 0.89375 6.94629 1.375 6.94629H20.625C21.1063 6.94629 21.5 7.4204 21.5 7.99986C21.5 8.57932 21.1063 9.05343 20.625 9.05343Z" fill="#2E4765"/>
<path d="M20.625 15.3747H1.375C0.89375 15.3747 0.5 14.9006 0.5 14.3211C0.5 13.7417 0.89375 13.2676 1.375 13.2676H20.625C21.1063 13.2676 21.5 13.7417 21.5 14.3211C21.5 14.9006 21.1063 15.3747 20.625 15.3747Z" fill="#2E4765"/>
</svg>
