<svg width="21" height="25" viewBox="0 0 21 25" fill="none" xmlns="http://www.w3.org/2000/svg">
<path fill-rule="evenodd" clip-rule="evenodd" d="M0.699219 10.4854C0.699219 4.99788 5.1421 0.5625 10.5162 0.5625C15.9055 0.5625 20.3483 4.99788 20.3483 10.4854C20.3483 13.2507 19.374 15.8179 17.7703 17.9939C16.001 20.3941 13.8204 22.4853 11.3659 24.1268C10.8041 24.5062 10.2971 24.5348 9.68054 24.1268C7.21202 22.4853 5.03137 20.3941 3.2773 17.9939C1.67241 15.8179 0.699219 13.2507 0.699219 10.4854ZM7.28086 10.7941C7.28086 12.6324 8.73423 14.0783 10.5163 14.0783C12.2995 14.0783 13.7669 12.6324 13.7669 10.7941C13.7669 8.97005 12.2995 7.45381 10.5163 7.45381C8.73423 7.45381 7.28086 8.97005 7.28086 10.7941Z" fill="#2E4765"/>
</svg>
