<svg width="23" height="24" viewBox="0 0 23 24" fill="none" xmlns="http://www.w3.org/2000/svg">
<path d="M13.9535 10.4407C13.9535 10.0571 13.6424 9.74609 13.2588 9.74609H8.30398C7.9204 9.74609 7.60938 10.0571 7.60938 10.4407C7.60938 10.8243 7.9204 11.1353 8.30398 11.1353H13.2588C13.6417 11.1353 13.9535 10.8243 13.9535 10.4407Z" fill="#2E4765" fill-opacity="0.41"/>
<path d="M8.30398 12.6763C7.9204 12.6763 7.60938 12.9873 7.60938 13.3709C7.60938 13.7545 7.9204 14.0655 8.30398 14.0655H11.696C12.0796 14.0655 12.3906 13.7545 12.3906 13.3709C12.3906 12.9873 12.0796 12.6763 11.696 12.6763H8.30398Z" fill="#2E4765" fill-opacity="0.41"/>
<path d="M21.7898 18.7349H19.9275V12.2774C19.9275 11.8938 19.6165 11.5827 19.2329 11.5827C18.8493 11.5827 18.5383 11.8938 18.5383 12.2774V18.7349H8.43562C7.8398 18.7349 7.35435 19.2203 7.35435 19.8154V20.8766C7.35126 21.3482 7.10583 21.7642 6.74618 21.971C6.59491 22.052 6.42975 22.0983 6.25841 22.1053C5.95973 22.1184 5.67031 22.0158 5.4465 21.8105C5.20493 21.5897 5.07141 21.2872 5.07141 20.9592V7.82338V6.29215C5.06369 5.90703 4.97339 5.49258 4.79742 5.14605H11.1909C11.5745 5.14605 11.8855 4.83502 11.8855 4.45144C11.8855 4.06787 11.5745 3.75684 11.1909 3.75684H2.53918C2.52837 3.75684 2.51988 3.76224 2.50908 3.76301C1.12372 3.77536 0 4.90371 0 6.29215V7.43826C0 8.0333 0.484682 8.51799 1.07973 8.51799H3.68065V20.9592C3.68065 21.6723 3.98319 22.3569 4.50955 22.8369C4.97416 23.2606 5.58233 23.4945 6.20516 23.4984C6.20748 23.4984 6.20979 23.4999 6.21211 23.4999H20.3319C21.7312 23.4999 22.8703 22.3607 22.8703 20.9615V19.8162C22.8703 19.2196 22.3849 18.7349 21.7898 18.7349ZM1.38922 7.12877V6.29215C1.38922 5.66238 1.90091 5.14991 2.53763 5.14991C3.16741 5.14991 3.67988 5.66238 3.67988 6.29215V7.12877H1.38922ZM21.4811 20.9607C21.4811 21.5944 20.9663 22.1091 20.3327 22.1091H8.46881C8.78293 21.4917 8.74434 20.7956 8.74434 20.1264H19.2329C19.2368 20.1264 19.2399 20.1241 19.2445 20.1241H21.4819L21.4811 20.9607Z" fill="#2E4765" fill-opacity="0.41"/>
<path d="M18.0676 10.3676C20.7882 10.3676 23.0024 8.15409 23.0024 5.43354C23.0024 2.71299 20.7889 0.499512 18.0676 0.499512C15.3463 0.499512 13.1328 2.71299 13.1328 5.43354C13.1328 8.15409 15.3463 10.3676 18.0676 10.3676ZM18.0676 1.88873C20.0218 1.88873 21.6124 3.47938 21.6124 5.43354C21.6124 7.38848 20.0218 8.97836 18.0676 8.97836C16.1134 8.97836 14.5228 7.3877 14.5228 5.43354C14.5228 3.47861 16.1134 1.88873 18.0676 1.88873Z" fill="#2E4765" fill-opacity="0.41"/>
<path d="M16.8915 6.80758C17.0057 6.95345 17.174 7.04838 17.3584 7.06922C17.3847 7.07231 17.4109 7.07385 17.4379 7.07385C17.5954 7.07385 17.7497 7.0206 17.8732 6.92026L19.9431 5.25243C20.2426 5.01164 20.2889 4.57481 20.0489 4.27612C19.8081 3.97822 19.3713 3.93036 19.0718 4.17116L17.5498 5.39676L17.1709 4.91362C16.9355 4.61108 16.4979 4.55783 16.1954 4.79554C15.8936 5.03248 15.8411 5.46931 16.078 5.77107L16.8915 6.80758Z" fill="#2E4765" fill-opacity="0.41"/>
</svg>
