<svg width="19" height="24" viewBox="0 0 19 24" fill="none" xmlns="http://www.w3.org/2000/svg">
<path d="M9.192 24C8.928 24 8.688 23.88 8.52 23.688C7.656 22.704 0 13.992 0 9.192C0 4.128 4.128 0 9.192 0C14.256 0 18.384 4.128 18.384 9.192C18.384 13.968 10.728 22.704 9.864 23.688C9.696 23.88 9.456 24 9.192 24ZM9.192 1.824C5.136 1.824 1.824 5.136 1.824 9.192C1.824 12.36 6.648 18.672 9.192 21.696C11.736 18.696 16.56 12.36 16.56 9.192C16.56 5.136 13.248 1.824 9.192 1.824Z" fill="#2E4765" fill-opacity="0.41"/>
<path d="M9.19394 13.9201C6.64994 13.9201 4.58594 11.8561 4.58594 9.3121C4.58594 6.7681 6.64994 4.7041 9.19394 4.7041C11.7379 4.7041 13.8019 6.7681 13.8019 9.3121C13.8019 11.8561 11.7379 13.9201 9.19394 13.9201ZM9.19394 6.5281C7.65794 6.5281 6.40994 7.7761 6.40994 9.3121C6.40994 10.8481 7.65794 12.0961 9.19394 12.0961C10.7299 12.0961 11.9779 10.8481 11.9779 9.3121C11.9779 7.7761 10.7299 6.5281 9.19394 6.5281Z" fill="#2E4765" fill-opacity="0.41"/>
</svg>
