<svg width="24" height="25" viewBox="0 0 24 25" fill="none" xmlns="http://www.w3.org/2000/svg">
<g clip-path="url(#clip0_171_1555)">
<path d="M12.8541 6.92001C14.0283 7.12157 15.1017 7.67704 15.9572 8.53016C16.808 9.38094 17.3658 10.4544 17.5673 11.6309C17.6447 12.095 18.0431 12.4302 18.5142 12.4302C18.5752 12.4302 18.6291 12.4231 18.6666 12.4161C18.6689 12.4161 18.6713 12.4161 18.6736 12.4138C18.9291 12.3716 19.1517 12.2333 19.2994 12.02C19.447 11.8091 19.5033 11.5559 19.4588 11.3052C19.1916 9.73485 18.4509 8.30516 17.3142 7.16844C16.1728 6.03173 14.7408 5.2911 13.1728 5.02626H13.1705C12.6478 4.93954 12.1533 5.29345 12.0666 5.81376C11.9845 6.33876 12.3361 6.83329 12.8541 6.92001Z" fill="#2E4765" fill-opacity="0.41"/>
<path d="M18.7634 14.9656C18.2384 14.4195 17.6032 14.1312 16.9259 14.1312C16.2556 14.1312 15.6157 14.4148 15.079 14.9539L13.7454 16.2875C13.7126 16.2711 13.6798 16.2547 13.6493 16.2383L13.5813 16.2055C13.4384 16.1328 13.2743 16.0508 13.1384 15.9664C11.7696 15.0969 10.5204 13.9578 9.31571 12.4813C8.80009 11.832 8.43915 11.2812 8.17431 10.7328C8.50946 10.4164 8.82118 10.1 9.11415 9.8C9.17978 9.73437 9.2454 9.66641 9.31337 9.59844C9.379 9.53047 9.44696 9.4625 9.51493 9.39453C10.0727 8.83672 10.3681 8.18984 10.3657 7.52422C10.3657 6.86094 10.0704 6.21641 9.51493 5.66328L8.21884 4.36719C8.14384 4.29219 8.06884 4.21719 7.99618 4.14219C7.92353 4.06719 7.84853 3.99219 7.77587 3.91953L7.67275 3.81406C7.41728 3.55391 7.15243 3.28438 6.88525 3.03828C6.36493 2.52031 5.73446 2.24609 5.0665 2.24609C4.40087 2.24609 3.76571 2.52031 3.22431 3.03828C3.22196 3.04063 3.21962 3.04062 3.21962 3.04297L1.5954 4.66484C0.93212 5.32812 0.554776 6.13672 0.472745 7.06719V7.06953C0.386026 8.17109 0.585245 9.33359 1.10087 10.7281C1.88134 12.8375 3.05321 14.7922 4.78525 16.8781C6.89931 19.3977 9.43759 21.3852 12.3274 22.7844H12.3298C13.4431 23.3164 14.9384 23.9398 16.6259 24.05C16.6282 24.05 16.6306 24.05 16.6329 24.05H16.6446C16.7407 24.0547 16.8415 24.0594 16.947 24.0594C18.1306 24.0594 19.129 23.6305 19.9118 22.7844L19.9235 22.7727C19.9329 22.7633 19.9399 22.7563 19.947 22.7469C20.1813 22.4656 20.4509 22.2055 20.7532 21.9148C20.9618 21.7156 21.1751 21.5117 21.3813 21.2914C21.9134 20.7359 22.1946 20.0891 22.1923 19.4211C22.1899 18.7508 21.904 18.1109 21.3649 17.5719L18.7634 14.9656ZM18.5056 21.4977C18.0884 21.943 17.6102 22.1422 16.9587 22.1422C16.8977 22.1422 16.8298 22.1375 16.7595 22.1328C15.4095 22.0461 14.1321 21.5117 13.1712 21.0547C10.5181 19.7773 8.19306 17.9586 6.25946 15.6477C4.67743 13.7422 3.61103 11.9656 2.90556 10.0625C2.48368 8.93047 2.32431 8.05391 2.38993 7.22656C2.43212 6.74375 2.61259 6.35938 2.95712 6.01953L4.56962 4.40703C4.73837 4.24531 4.91181 4.15859 5.07353 4.15859C5.22587 4.15859 5.38759 4.24297 5.55868 4.40938C5.56103 4.41172 5.56337 4.41406 5.56571 4.41641C5.84462 4.67891 6.1165 4.95547 6.40478 5.24609L6.41415 5.25547C6.55243 5.39844 6.71181 5.5625 6.87353 5.71953L8.16728 7.01328C8.54462 7.39062 8.54462 7.65547 8.16728 8.03281C8.03134 8.16875 7.89306 8.30703 7.75712 8.44766L7.66103 8.54609C7.29775 8.91406 6.95556 9.26094 6.5829 9.59141C6.57821 9.59609 6.57118 9.60078 6.5665 9.60781L6.54306 9.63125C6.14696 10.0273 6.03915 10.5008 6.22431 11.0352C6.229 11.0492 6.23368 11.0609 6.23837 11.0727C6.24071 11.0797 6.24306 11.0867 6.24775 11.0938C6.59462 11.9305 7.08212 12.725 7.83212 13.6742C7.83212 13.6766 7.83446 13.6766 7.83446 13.6789C9.16572 15.3172 10.5696 16.5969 12.1282 17.5859C12.3321 17.7148 12.5431 17.8227 12.7399 17.9211C12.8852 17.9937 13.0493 18.0781 13.1852 18.1602C13.1946 18.1672 13.204 18.1719 13.2134 18.1766L13.2204 18.1813C13.2345 18.1883 13.2485 18.1977 13.2649 18.2047C13.4688 18.3078 13.6704 18.357 13.879 18.357C14.2352 18.357 14.5634 18.2094 14.8282 17.9305L16.4501 16.3086C16.5673 16.1914 16.7501 16.0508 16.9423 16.0508C17.1204 16.0508 17.2938 16.1891 17.4063 16.3063C17.4087 16.3086 17.4087 16.3086 17.411 16.3109L20.029 18.9289C20.2868 19.1867 20.4626 19.4914 20.0079 19.9695L20.0056 19.9719C19.8626 20.1266 19.7102 20.2742 19.5485 20.4313C19.5134 20.4641 19.4782 20.4992 19.4431 20.5344C19.1149 20.8414 18.8009 21.1461 18.5056 21.4977Z" fill="#2E4765" fill-opacity="0.41"/>
<path d="M23.5334 11.1174C23.1021 8.57909 21.9021 6.26347 20.0623 4.42362C18.2154 2.58143 15.8998 1.38143 13.3592 0.952527C12.8365 0.865809 12.342 1.21972 12.2553 1.74003C12.1685 2.26268 12.5225 2.75722 13.0404 2.84393C15.1896 3.20956 17.1467 4.22675 18.7029 5.78065C20.2592 7.3369 21.274 9.29393 21.6396 11.4408C21.717 11.9049 22.1154 12.24 22.5865 12.24C22.5889 12.24 22.5912 12.24 22.5935 12.24C22.6521 12.24 22.7014 12.233 22.7389 12.226C22.7412 12.226 22.7435 12.226 22.7459 12.2236C23.0014 12.1814 23.224 12.0432 23.3717 11.8299C23.5217 11.6213 23.5779 11.3682 23.5334 11.1174Z" fill="#2E4765" fill-opacity="0.41"/>
</g>
<defs>
<clipPath id="clip0_171_1555">
<rect width="24" height="24" fill="white" transform="translate(0 0.5)"/>
</clipPath>
</defs>
</svg>
