<svg width="26" height="26" viewBox="0 0 26 26" fill="none" xmlns="http://www.w3.org/2000/svg">
<path fill-rule="evenodd" clip-rule="evenodd" d="M2.62484 6.39187L2.75841 6.24162C3.24791 5.72974 3.97716 5.47363 4.94549 5.47363H21.5406C22.4532 5.47363 23.1544 5.69635 23.6442 6.14144L23.6609 6.15814C23.7611 6.24729 23.8616 6.35281 23.9614 6.47535C23.9614 6.4867 23.9671 6.49772 23.9781 6.50874L23.9948 6.52544C24.3624 6.98189 24.5458 7.62733 24.5458 8.46209V17.9116C24.5347 19.9151 23.533 20.9168 21.5406 20.9168H4.94549C2.95307 20.9058 1.95703 19.904 1.95703 17.9116V8.46209C1.95703 7.56054 2.17975 6.87036 2.62484 6.39187ZM22.0916 7.10977C21.9246 7.06536 21.7409 7.04833 21.5409 7.05969H4.94549C4.82294 7.04867 4.70608 7.05401 4.59489 7.07638L13.193 15.7913L22.0916 7.10977ZM3.54308 8.27844C3.53206 8.3342 3.53206 8.39531 3.54308 8.46209V17.9116C3.54308 18.8579 4.01055 19.3307 4.94549 19.3307H21.5406C22.4866 19.3307 22.9597 18.8579 22.9597 17.9116V8.47879L13.7439 17.4775C13.577 17.6335 13.388 17.7113 13.1766 17.7113C12.9539 17.7003 12.7646 17.6221 12.609 17.4775L3.54308 8.27844Z" fill="#2E4765" fill-opacity="0.41"/>
<path fill-rule="evenodd" clip-rule="evenodd" d="M2.625 6.39147C2.64737 6.35808 2.67509 6.32469 2.70848 6.2913C2.71983 6.26892 2.73619 6.25223 2.75856 6.24121L2.625 6.39147Z" fill="#2E4765" fill-opacity="0.41"/>
</svg>
