<svg width="25" height="25" viewBox="0 0 25 25" fill="none" xmlns="http://www.w3.org/2000/svg">
<path d="M18.5179 8.01637C19.2959 8.01637 19.9265 7.38573 19.9265 6.60779C19.9265 5.82986 19.2959 5.19922 18.5179 5.19922C17.74 5.19922 17.1094 5.82986 17.1094 6.60779C17.1094 7.38573 17.74 8.01637 18.5179 8.01637Z" fill="#2E4765"/>
<path fill-rule="evenodd" clip-rule="evenodd" d="M6.57031 12.6366C6.57031 15.8734 9.20258 18.5057 12.4394 18.5057C15.6762 18.5057 18.3084 15.8734 18.3084 12.6366C18.3084 9.39985 15.6762 6.76758 12.4394 6.76758C9.20258 6.76758 6.57031 9.39985 6.57031 12.6366ZM9.50432 12.6373C9.50432 11.0189 10.8205 9.70276 12.4388 9.70276C14.0572 9.70276 15.3734 11.0189 15.3734 12.6373C15.3734 14.2557 14.0572 15.5718 12.4388 15.5718C10.8205 15.5718 9.50432 14.2557 9.50432 12.6373Z" fill="#2E4765"/>
<path fill-rule="evenodd" clip-rule="evenodd" d="M6.56828 24.3747H18.3064C21.3231 24.3747 24.1754 21.5223 24.1754 18.5056V6.76749C24.1754 3.7508 21.3231 0.898438 18.3064 0.898438H6.56828C3.55158 0.898438 0.699219 3.7508 0.699219 6.76749V18.5056C0.699219 21.5223 3.55158 24.3747 6.56828 24.3747ZM3.63317 6.76757C3.63317 5.39568 5.19581 3.83304 6.5677 3.83304H18.3058C19.6777 3.83304 21.2403 5.39568 21.2403 6.76757V18.5057C21.2403 19.8776 19.6777 21.4402 18.3058 21.4402H6.5677C5.1694 21.4402 3.63317 19.904 3.63317 18.5057V6.76757Z" fill="#2E4765"/>
</svg>
