<svg width="37" height="36" viewBox="0 0 37 36" fill="none" xmlns="http://www.w3.org/2000/svg">
<circle cx="18.5717" cy="17.9585" r="17.9585" fill="#2E4765"/>
<path fill-rule="evenodd" clip-rule="evenodd" d="M21.8899 26.0368H14.1274C12.1324 26.0368 10.2461 24.1505 10.2461 22.1555V14.393C10.2461 12.398 12.1324 10.5117 14.1274 10.5117H21.8899C23.8849 10.5117 25.7712 12.398 25.7712 14.393V22.1555C25.7712 24.1505 23.8849 26.0368 21.8899 26.0368ZM14.1263 12.4526C13.219 12.4526 12.1857 13.486 12.1857 14.3933V22.1558C12.1857 23.0805 13.2016 24.0964 14.1263 24.0964H21.8888C22.7961 24.0964 23.8295 23.063 23.8295 22.1558V14.3933C23.8295 13.486 22.7961 12.4526 21.8888 12.4526H14.1263ZM22.0301 15.2193C22.5446 15.2193 22.9616 14.8022 22.9616 14.2878C22.9616 13.7733 22.5446 13.3563 22.0301 13.3563C21.5156 13.3563 21.0986 13.7733 21.0986 14.2878C21.0986 14.8022 21.5156 15.2193 22.0301 15.2193ZM14.1287 18.2748C14.1287 20.4153 15.8695 22.1561 18.01 22.1561C20.1505 22.1561 21.8913 20.4153 21.8913 18.2748C21.8913 16.1343 20.1505 14.3935 18.01 14.3935C15.8695 14.3935 14.1287 16.1343 14.1287 18.2748ZM16.0683 18.2751C16.0683 17.2048 16.9387 16.3344 18.0089 16.3344C19.0792 16.3344 19.9496 17.2048 19.9496 18.2751C19.9496 19.3453 19.0792 20.2157 18.0089 20.2157C16.9387 20.2157 16.0683 19.3453 16.0683 18.2751Z" fill="white"/>
</svg>
