<svg width="19" height="18" viewBox="0 0 19 18" fill="none" xmlns="http://www.w3.org/2000/svg">
<path d="M14.1668 5.51241C14.7541 5.51241 15.2302 5.03634 15.2302 4.44908C15.2302 3.86181 14.7541 3.38574 14.1668 3.38574C13.5796 3.38574 13.1035 3.86181 13.1035 4.44908C13.1035 5.03634 13.5796 5.51241 14.1668 5.51241Z" fill="#2E4765"/>
<path fill-rule="evenodd" clip-rule="evenodd" d="M5.14648 9.00038C5.14648 11.4438 7.13359 13.4309 9.57704 13.4309C12.0205 13.4309 14.0076 11.4438 14.0076 9.00038C14.0076 6.55693 12.0205 4.56982 9.57704 4.56982C7.13359 4.56982 5.14648 6.55693 5.14648 9.00038ZM7.36177 9.0007C7.36177 7.77897 8.35532 6.78542 9.57705 6.78542C10.7988 6.78542 11.7923 7.77897 11.7923 9.0007C11.7923 10.2224 10.7988 11.216 9.57705 11.216C8.35532 11.216 7.36177 10.2224 7.36177 9.0007Z" fill="#2E4765"/>
<path fill-rule="evenodd" clip-rule="evenodd" d="M5.1454 17.8614H14.0065C16.2838 17.8614 18.4371 15.7081 18.4371 13.4308V4.56972C18.4371 2.29241 16.2838 0.13916 14.0065 0.13916H5.1454C2.86809 0.13916 0.714844 2.29241 0.714844 4.56972V13.4308C0.714844 15.7081 2.86809 17.8614 5.1454 17.8614ZM2.93017 4.5699C2.93017 3.53425 4.10981 2.35462 5.14545 2.35462H14.0066C15.0422 2.35462 16.2218 3.53425 16.2218 4.5699V13.431C16.2218 14.4667 15.0422 15.6463 14.0066 15.6463H5.14545C4.08987 15.6463 2.93017 14.4866 2.93017 13.431V4.5699Z" fill="#2E4765"/>
</svg>
