<svg width="43" height="38" viewBox="0 0 43 38" fill="none" xmlns="http://www.w3.org/2000/svg">
<path d="M12.2708 0.632812C5.12346 0.632812 0.347656 6.50125 0.347656 13.0329C0.347656 19.1611 3.82779 24.4576 8.08283 28.6374C12.3379 32.8172 17.4157 35.9159 20.9003 37.7139C21.0342 37.782 21.1823 37.8175 21.3325 37.8175C21.4827 37.8175 21.6308 37.782 21.7647 37.7139C25.2493 35.9159 30.3271 32.8172 34.5821 28.6374C38.8372 24.4576 42.3173 19.1611 42.3173 13.0329C42.3173 6.50125 37.5415 0.632812 30.3941 0.632812C26.1808 0.632812 23.3819 2.7811 21.3325 5.68527C19.2831 2.7811 16.4841 0.632812 12.2708 0.632812ZM12.2708 2.54052C16.3565 2.54052 18.5954 4.57901 20.5128 7.78673C20.5973 7.92877 20.7173 8.0464 20.861 8.12809C21.0047 8.20979 21.1672 8.25274 21.3325 8.25274C21.4978 8.25274 21.6602 8.20979 21.8039 8.12809C21.9476 8.0464 22.0676 7.92877 22.1522 7.78673C24.0696 4.57901 26.3084 2.54052 30.3941 2.54052C36.5121 2.54052 40.4096 7.40868 40.4096 13.0329C40.4096 18.4335 37.2912 23.2874 33.2408 27.2663C29.3378 31.1002 24.6739 34.0164 21.3325 35.7764C17.9911 34.0164 13.3272 31.1002 9.42419 27.2663C5.37371 23.2874 2.25537 18.4335 2.25537 13.0329C2.25537 7.40868 6.15282 2.54052 12.2708 2.54052Z" fill="#2E4765"/>
</svg>
