<svg width="32" height="31" viewBox="0 0 32 31" fill="none" xmlns="http://www.w3.org/2000/svg">
<circle cx="16" cy="15.5" r="15.5" transform="rotate(-90 16 15.5)" fill="#56924C"/>
<path d="M20.3391 14.853C20.3338 14.6413 20.2431 14.4389 20.0848 14.2851L14.5031 8.94081C14.3313 8.77771 14.0963 8.68386 13.8494 8.67982C13.6025 8.67579 13.3639 8.76189 13.1859 8.91927C13.008 9.07664 12.9052 9.29245 12.9 9.51938C12.8949 9.74632 12.9879 9.96586 13.1586 10.1299L18.1225 14.8797L13.1586 19.6295C12.9879 19.7935 12.8949 20.0131 12.9 20.24C12.9052 20.4669 13.008 20.6827 13.1859 20.8401C13.3639 20.9975 13.6025 21.0836 13.8494 21.0796C14.0963 21.0755 14.3313 20.9817 14.5031 20.8186L20.0848 15.4742C20.1701 15.3915 20.2365 15.2939 20.2802 15.1872C20.3239 15.0805 20.3439 14.9669 20.3391 14.853Z" fill="white"/>
</svg>
