<svg width="19" height="26" viewBox="0 0 19 26" fill="none" xmlns="http://www.w3.org/2000/svg">
<path d="M19 17.4056V3.6728C19 1.64752 17.3522 0 15.3269 0H4.1664H0.666805C0.298649 0 0 0.298367 0 0.666523V20.4119C0 20.78 0.298649 21.0784 0.666805 21.0784H4.16669H4.69956V24.7444C4.69956 24.9764 4.82021 25.1917 5.01828 25.3129C5.21606 25.4341 5.463 25.4437 5.66954 25.338L7.95024 24.1728L10.2657 25.3558C10.3612 25.405 10.4652 25.429 10.5691 25.429C10.6901 25.429 10.8107 25.3962 10.917 25.331C11.115 25.2098 11.2357 24.9945 11.2357 24.7625V21.0787H15.3269C17.3522 21.0787 19 19.4309 19 17.4056ZM3.49988 19.7454H1.33361V1.33333H3.49988V19.7454ZM9.90234 23.6733L8.25369 22.831C8.06326 22.7335 7.83751 22.7335 7.64679 22.831L6.03289 23.6555V21.0787H9.90234V23.6733ZM17.6664 17.4056C17.6664 18.6957 16.617 19.7454 15.3269 19.7454H4.83321V1.33333H15.3269C16.617 1.33333 17.6664 2.38298 17.6664 3.67308V17.4056Z" fill="#2E4765"/>
<path d="M14.3835 6.39648H8.17541C7.85868 6.39648 7.60156 6.65332 7.60156 6.97033C7.60156 7.28735 7.8584 7.54418 8.17541 7.54418H14.3835C14.7002 7.54418 14.9573 7.28735 14.9573 6.97033C14.9573 6.65332 14.7002 6.39648 14.3835 6.39648Z" fill="#2E4765"/>
<path d="M14.3835 9.15625H8.17541C7.85868 9.15625 7.60156 9.41308 7.60156 9.7301C7.60156 10.0471 7.8584 10.3039 8.17541 10.3039H14.3835C14.7002 10.3039 14.9573 10.0471 14.9573 9.7301C14.9573 9.41308 14.7002 9.15625 14.3835 9.15625Z" fill="#2E4765"/>
</svg>
