<svg width="23" height="21" viewBox="0 0 23 21" fill="none" xmlns="http://www.w3.org/2000/svg">
<path d="M13.9563 18.7839C13.9563 19.3075 13.5389 19.7336 13.0259 19.7336H2.17098C1.65801 19.7336 1.24056 19.3075 1.24056 18.7839V2.21612C1.24056 1.69249 1.65801 1.26636 2.17098 1.26636H13.0259C13.5389 1.26636 13.9563 1.69249 13.9563 2.21612V7.11408H15.1969V2.21612C15.1969 0.994407 14.2227 0 13.0259 0H2.17098C0.97415 0 0 0.994407 0 2.21612V18.7839C0 20.0056 0.97415 21 2.17098 21H13.0259C14.2227 21 15.1969 20.0056 15.1969 18.7839V13.8859H13.9563V18.7839ZM18.1026 5.50074L17.2255 6.39605L20.6253 9.86682H6.30577V11.1332H20.6259L17.2255 14.6043L18.1026 15.4996L23 10.5003L18.1026 5.50074Z" fill="#2E4765"/>
</svg>
