<svg width="20" height="21" viewBox="0 0 20 21" fill="none" xmlns="http://www.w3.org/2000/svg">
<path fill-rule="evenodd" clip-rule="evenodd" d="M9.4994 19.0383C9.4994 19.3145 9.72326 19.5383 9.9994 19.5383C10.2755 19.5383 10.4994 19.3145 10.4994 19.0383V10.9999H18.5379C18.814 10.9999 19.0379 10.776 19.0379 10.4999C19.0379 10.2237 18.814 9.99989 18.5379 9.99989H10.4994V1.96143C10.4994 1.68528 10.2755 1.46143 9.9994 1.46143C9.72326 1.46143 9.4994 1.68528 9.4994 1.96143V9.99989H1.46094C1.1848 9.99989 0.960938 10.2237 0.960938 10.4999C0.960938 10.776 1.1848 10.9999 1.46094 10.9999H9.4994V19.0383Z" fill="#2E4765"/>
<path d="M10.4994 10.9999V10.4999H9.9994V10.9999H10.4994ZM10.4994 9.99989H9.9994V10.4999H10.4994V9.99989ZM9.4994 9.99989V10.4999H9.9994V9.99989H9.4994ZM9.4994 10.9999H9.9994V10.4999H9.4994V10.9999ZM9.9994 19.0383H8.9994C8.9994 19.5906 9.44711 20.0383 9.9994 20.0383V19.0383ZM9.9994 19.0383V20.0383C10.5517 20.0383 10.9994 19.5906 10.9994 19.0383H9.9994ZM9.9994 10.9999V19.0383H10.9994V10.9999H9.9994ZM18.5379 10.4999H10.4994V11.4999H18.5379V10.4999ZM18.5379 10.4999V11.4999C19.0901 11.4999 19.5379 11.0522 19.5379 10.4999H18.5379ZM18.5379 10.4999H19.5379C19.5379 9.9476 19.0901 9.49989 18.5379 9.49989V10.4999ZM10.4994 10.4999H18.5379V9.49989H10.4994V10.4999ZM9.9994 1.96143V9.99989H10.9994V1.96143H9.9994ZM9.9994 1.96143H10.9994C10.9994 1.40914 10.5517 0.961426 9.9994 0.961426V1.96143ZM9.9994 1.96143V1.96143V0.961426C9.44712 0.961426 8.9994 1.40914 8.9994 1.96143H9.9994ZM9.9994 9.99989V1.96143H8.9994V9.99989H9.9994ZM1.46094 10.4999H9.4994V9.49989H1.46094V10.4999ZM1.46094 10.4999V9.49989C0.908653 9.49989 0.460938 9.9476 0.460938 10.4999H1.46094ZM1.46094 10.4999H0.460938C0.460938 11.0522 0.908653 11.4999 1.46094 11.4999V10.4999ZM9.4994 10.4999H1.46094V11.4999H9.4994V10.4999ZM9.9994 19.0383V10.9999H8.9994V19.0383H9.9994Z" fill="#2E4765"/>
</svg>
