<svg width="31" height="32" viewBox="0 0 31 32" fill="none" xmlns="http://www.w3.org/2000/svg">
<path d="M22.1782 24.6119L22.1781 24.6056L22.1782 24.5994V20.5322H8.82402V24.6056V29.9925H22.1782V24.6119ZM11.3038 24.3911C10.8904 24.3911 10.5552 24.065 10.5552 23.6628C10.5552 23.2605 10.8904 22.9344 11.3038 22.9344H19.6985C20.1119 22.9344 20.4471 23.2605 20.4471 23.6628C20.4471 24.065 20.1119 24.3911 19.6985 24.3911H11.3038ZM11.3038 27.5902C10.8904 27.5902 10.5552 27.2641 10.5552 26.8619C10.5552 26.4596 10.8904 26.1335 11.3038 26.1335H19.6985C20.1119 26.1335 20.4471 26.4596 20.4471 26.8619C20.4471 27.2641 20.1119 27.5902 19.6985 27.5902H11.3038ZM17.7128 12.5769C18.1262 12.5769 18.4614 12.903 18.4614 13.3053C18.4614 13.7075 18.1262 14.0336 17.7128 14.0336H16.6349C16.2215 14.0336 15.8863 13.7075 15.8863 13.3053C15.8863 12.903 16.2215 12.5769 16.6349 12.5769H17.7128ZM21.1192 12.5769C21.5326 12.5769 21.8678 12.903 21.8678 13.3053C21.8678 13.7075 21.5326 14.0336 21.1192 14.0336H20.0411C19.6277 14.0336 19.2925 13.7075 19.2925 13.3053C19.2925 12.903 19.6277 12.5769 20.0411 12.5769H21.1192ZM24.5255 12.5769C24.9389 12.5769 25.2741 12.903 25.2741 13.3053C25.2741 13.7075 24.9389 14.0336 24.5255 14.0336H23.4476C23.0342 14.0336 22.699 13.7075 22.699 13.3053C22.699 12.903 23.0342 12.5769 23.4476 12.5769H24.5255ZM8.07544 0.554688H22.9268C23.3402 0.554688 23.6753 0.880798 23.6753 1.28304V8.01558H25.2512C26.6454 8.01558 27.9126 8.57009 28.8306 9.46333C29.7487 10.3566 30.3186 11.5893 30.3186 12.9459V20.4036C30.3186 21.7603 29.7487 22.993 28.8306 23.8862C27.9126 24.7795 26.6454 25.334 25.2512 25.334H23.6753V30.7209C23.6753 31.1231 23.3402 31.4492 22.9268 31.4492H8.07544C7.66202 31.4492 7.32685 31.1231 7.32685 30.7209V25.334H5.75099C4.35682 25.334 3.0896 24.7795 2.17156 23.8862C1.25351 22.993 0.683594 21.7603 0.683594 20.4036V12.9459C0.683594 11.5893 1.25351 10.3566 2.17156 9.46333C3.0896 8.57009 4.35682 8.01558 5.75099 8.01558H7.32685V1.28304C7.32685 0.880798 7.66202 0.554688 8.07544 0.554688ZM22.1782 2.0114H8.82402V8.01551H22.1782V2.0114ZM23.6753 23.8773H24.5026V20.5322H23.6753V23.8773ZM7.32685 20.5322H6.49958V23.8773H7.32685V20.5322ZM25.9998 23.7997C26.6823 23.6564 27.2941 23.3216 27.7722 22.8564C28.4195 22.2265 28.8214 21.3581 28.8214 20.4036V12.9459C28.8214 11.9914 28.4195 11.1231 27.7722 10.4932C27.1248 9.86335 26.2323 9.47229 25.2512 9.47229H5.75099C4.76994 9.47229 3.87739 9.86335 3.23004 10.4932C2.58269 11.1231 2.18077 11.9914 2.18077 12.9459V20.4036C2.18077 21.3581 2.58269 22.2265 3.23004 22.8564C3.70815 23.3216 4.31991 23.6564 5.0024 23.7997V19.8038C5.0024 19.4016 5.33757 19.0754 5.75099 19.0754H25.2512C25.6646 19.0754 25.9998 19.4016 25.9998 19.8038V23.7997Z" fill="#2E4765"/>
</svg>
