<svg width="19" height="26" viewBox="0 0 19 26" fill="none" xmlns="http://www.w3.org/2000/svg">
<path fill-rule="evenodd" clip-rule="evenodd" d="M19 5.20206C19 3.8222 18.399 2.49932 17.3297 1.5238C16.2604 0.548286 14.8103 0 13.2978 0C10.9289 0 8.07114 0 5.70223 0C4.18969 0 2.73963 0.548286 1.66986 1.5238C0.600547 2.49932 0 3.8222 0 5.20206C0 12.1813 0 25.1334 0 25.1334C0 25.4645 0.206566 25.7666 0.532604 25.9117C0.858641 26.0573 1.24669 26.0207 1.53306 25.8173L9.49977 20.1647L17.4665 25.8173C17.7529 26.0207 18.1414 26.0573 18.4674 25.9117C18.793 25.7666 19 25.4645 19 25.1334V5.20206ZM17.0999 5.20206V23.3612L10.083 18.3826C9.74008 18.1392 9.25992 18.1392 8.91655 18.3826L1.90014 23.3612V5.20206C1.90014 4.28229 2.3005 3.39996 3.01368 2.74934C3.7264 2.09871 4.69357 1.73347 5.70223 1.73347H13.2978C14.306 1.73347 15.2731 2.09871 15.9863 2.74934C16.6995 3.39996 17.0999 4.28229 17.0999 5.20206Z" fill="#2E4765"/>
</svg>
