<svg width="16" height="16" viewBox="0 0 16 16" fill="none" xmlns="http://www.w3.org/2000/svg">
<path d="M11.2143 9.92857H10.5285L10.2714 9.67143C11.1286 8.72858 11.6429 7.44285 11.6429 6.07143C11.6429 2.98572 9.15715 0.5 6.07144 0.5C2.98568 0.5 0.5 2.98572 0.5 6.07143C0.5 9.15714 2.98568 11.6429 6.07144 11.6429C7.44288 11.6429 8.72857 11.1286 9.67142 10.2714L9.92856 10.5286V11.2143L14.2143 15.5L15.5 14.2143L11.2143 9.92857ZM6.07139 9.92857C3.92853 9.92857 2.21424 8.21429 2.21424 6.07143C2.21424 3.92857 3.92853 2.21429 6.07139 2.21429C8.21428 2.21429 9.92854 3.92857 9.92854 6.07143C9.92854 8.21429 8.21428 9.92857 6.07139 9.92857Z" fill="#2E4765"/>
</svg>
