<svg width="39" height="39" viewBox="0 0 39 39" fill="none" xmlns="http://www.w3.org/2000/svg">
<path d="M16.4531 0C15.2903 0 14.3 0.99035 14.3 2.15313V4.88854C13.8011 5.06606 13.3119 5.25868 12.8375 5.48438L10.9146 3.56146C10.5012 3.1481 9.9566 2.925 9.38437 2.925C8.81215 2.925 8.25641 3.17276 7.86771 3.56146L3.56146 7.86771C2.74043 8.68874 2.74043 10.0936 3.56146 10.9146L5.48438 12.8375C5.25868 13.3119 5.06606 13.8011 4.88854 14.3H2.15313C0.99035 14.3 0 15.2903 0 16.4531V22.5469C0 23.7097 0.99035 24.7 2.15313 24.7H4.88854C5.06606 25.1989 5.25868 25.6881 5.48438 26.1625L3.56146 28.0854C2.74043 28.9064 2.74043 30.3113 3.56146 31.1323L7.86771 35.4385C8.68874 36.2596 10.0936 36.2596 10.9146 35.4385L12.8375 33.5156C13.3119 33.7413 13.8011 33.9339 14.3 34.1115V36.8469C14.3 38.0097 15.2903 39 16.4531 39H22.5469C23.7097 39 24.7 38.0097 24.7 36.8469V34.1115C25.1989 33.9339 25.6881 33.7413 26.1625 33.5156L28.0854 35.4385C28.9064 36.2596 30.3113 36.2596 31.1323 35.4385L35.4385 31.1323C36.2596 30.3113 36.2596 28.9064 35.4385 28.0854L33.5156 26.1625C33.7413 25.6881 33.9339 25.1989 34.1115 24.7H36.8469C38.0097 24.7 39 23.7097 39 22.5469V16.4531C39 15.2903 38.0097 14.3 36.8469 14.3H34.1115C33.9339 13.8011 33.7413 13.3119 33.5156 12.8375L35.4385 10.9146C36.2596 10.0936 36.2596 8.68874 35.4385 7.86771L31.1323 3.56146C30.7436 3.17276 30.1879 2.925 29.6156 2.925C29.0434 2.925 28.4988 3.1481 28.0854 3.56146L26.1625 5.48438C25.6881 5.25868 25.1989 5.06606 24.7 4.88854V2.15313C24.7 0.99035 23.7097 0 22.5469 0H16.4531ZM16.9 2.6H22.1V5.74167C22.1012 6.02411 22.1944 6.29846 22.3654 6.52324C22.5365 6.74802 22.776 6.91099 23.0479 6.9875C24.0337 7.2665 24.9644 7.66304 25.8375 8.15208C26.0851 8.29096 26.3714 8.34495 26.6526 8.30583C26.9338 8.26671 27.1945 8.13661 27.3948 7.93542L29.6021 5.71458L33.2854 9.39792L31.0646 11.6052C30.8634 11.8055 30.7333 12.0662 30.6942 12.3474C30.655 12.6286 30.709 12.9149 30.8479 13.1625C31.337 14.0356 31.7335 14.9663 32.0125 15.9521C32.089 16.224 32.252 16.4635 32.4768 16.6346C32.7015 16.8056 32.9759 16.8988 33.2583 16.9H36.4V22.1H33.2583C32.9759 22.1012 32.7015 22.1944 32.4768 22.3654C32.252 22.5365 32.089 22.776 32.0125 23.0479C31.7335 24.0337 31.337 24.9644 30.8479 25.8375C30.709 26.0851 30.655 26.3714 30.6942 26.6526C30.7333 26.9338 30.8634 27.1945 31.0646 27.3948L33.2854 29.6021L29.6021 33.2854L27.3948 31.0646C27.1945 30.8634 26.9338 30.7333 26.6526 30.6942C26.3714 30.655 26.0851 30.709 25.8375 30.8479C24.9644 31.337 24.0337 31.7335 23.0479 32.0125C22.776 32.089 22.5365 32.252 22.3654 32.4768C22.1944 32.7015 22.1012 32.9759 22.1 33.2583V36.4H16.9V33.2583C16.8988 32.9759 16.8056 32.7015 16.6346 32.4768C16.4635 32.252 16.224 32.089 15.9521 32.0125C14.9663 31.7335 14.0356 31.337 13.1625 30.8479C12.9149 30.709 12.6286 30.655 12.3474 30.6942C12.0662 30.7333 11.8055 30.8634 11.6052 31.0646L9.39792 33.2854L5.71458 29.6021L7.93542 27.3948C8.13661 27.1945 8.26671 26.9338 8.30583 26.6526C8.34495 26.3714 8.29096 26.0851 8.15208 25.8375C7.66304 24.9644 7.2665 24.0337 6.9875 23.0479C6.91099 22.776 6.74802 22.5365 6.52324 22.3654C6.29846 22.1944 6.02411 22.1012 5.74167 22.1H2.6V16.9H5.74167C6.02411 16.8988 6.29846 16.8056 6.52324 16.6346C6.74802 16.4635 6.91099 16.224 6.9875 15.9521C7.2665 14.9663 7.66304 14.0356 8.15208 13.1625C8.29096 12.9149 8.34495 12.6286 8.30583 12.3474C8.26671 12.0662 8.13661 11.8055 7.93542 11.6052L5.71458 9.39792L9.39792 5.71458L11.6052 7.93542C11.8055 8.13661 12.0662 8.26671 12.3474 8.30583C12.6286 8.34495 12.9149 8.29096 13.1625 8.15208C14.0356 7.66304 14.9663 7.2665 15.9521 6.9875C16.224 6.91099 16.4635 6.74802 16.6346 6.52324C16.8056 6.29846 16.8988 6.02411 16.9 5.74167V2.6ZM19.5 9.96667C14.2503 9.96667 9.96667 14.2503 9.96667 19.5C9.96667 24.7497 14.2503 29.0333 19.5 29.0333C24.7497 29.0333 29.0333 24.7497 29.0333 19.5C29.0333 14.2503 24.7497 9.96667 19.5 9.96667ZM19.5 12.5667C23.3446 12.5667 26.4333 15.6554 26.4333 19.5C26.4333 23.3446 23.3446 26.4333 19.5 26.4333C15.6554 26.4333 12.5667 23.3446 12.5667 19.5C12.5667 15.6554 15.6554 12.5667 19.5 12.5667Z" fill="#2E4765"/>
</svg>
