<svg width="33" height="28" viewBox="0 0 33 28" fill="none" xmlns="http://www.w3.org/2000/svg">
<path d="M0.798882 28C0.73743 28 0.675978 28 0.614525 28C0.24581 27.9374 0 27.6242 0 27.1858C0 10.4624 13.0894 7.76917 16.4078 7.33073V0.816782C16.4078 0.503611 16.5922 0.253074 16.838 0.0651718C17.0838 -0.0600965 17.4525 0.00253817 17.6983 0.190441L32.6927 12.6546C32.8771 12.7799 33 13.0304 33 13.281C33 13.5315 32.8771 13.782 32.6927 13.9073L17.7598 25.6825C17.514 25.8704 17.2067 25.9331 16.8994 25.7452C16.6536 25.6199 16.4693 25.3067 16.4693 24.9936V18.6675C13.581 19.0433 4.17877 20.8597 1.47486 27.4989C1.35196 27.8121 1.10614 28 0.798882 28ZM17.9441 2.5079V8.01971C17.9441 8.45815 17.6369 8.83395 17.2067 8.83395C16.5922 8.83395 3.44134 9.58556 1.78212 23.9914C6.69832 17.9159 16.7765 16.9764 17.2682 16.9764C17.514 16.9764 17.6983 17.039 17.8827 17.1643C18.067 17.2896 18.1285 17.5401 18.1285 17.728V23.3651L30.9106 13.281L17.9441 2.5079Z" fill="#2E4765"/>
</svg>
