<svg width="15" height="21" viewBox="0 0 15 21" fill="none" xmlns="http://www.w3.org/2000/svg">
<path fill-rule="evenodd" clip-rule="evenodd" d="M15 4.20167C15 3.08716 14.5255 2.01868 13.6813 1.23076C12.8371 0.442847 11.6923 0 10.4982 0C8.62805 0 6.37195 0 4.50176 0C3.30765 0 2.16286 0.442847 1.31831 1.23076C0.474116 2.01868 0 3.08716 0 4.20167C0 9.83872 0 20.3001 0 20.3001C0 20.5675 0.163079 20.8114 0.420477 20.9287C0.677875 21.0463 0.984232 21.0167 1.21031 20.8524L7.49982 16.2869L13.7893 20.8524C14.0154 21.0167 14.3221 21.0463 14.5795 20.9287C14.8366 20.8114 15 20.5675 15 20.3001V4.20167ZM13.4999 4.20167V18.8687L7.96026 14.8475C7.68954 14.6509 7.31046 14.6509 7.03938 14.8475L1.50011 18.8687V4.20167C1.50011 3.45877 1.81619 2.74612 2.37922 2.22062C2.9419 1.69512 3.70545 1.40011 4.50176 1.40011H10.4982C11.2942 1.40011 12.0577 1.69512 12.6208 2.22062C13.1838 2.74612 13.4999 3.45877 13.4999 4.20167Z" fill="#2E4765"/>
</svg>
