<?xml version="1.0" encoding="UTF-8"?>
<svg id="Layer_1" xmlns="http://www.w3.org/2000/svg" width="478.8" height="450.1" viewBox="0 0 478.8 450.1">
  <defs>
    <style>
      .cls-1 {
        fill: #2f4866;
      }
    </style>
  </defs>
  <path class="cls-1" d="M49.3,127.7c-10.4,4-19.5,7.6-28.5,11.1-9.3,3.6-16.8,1-19.8-6.9-2.9-7.7.6-14.2,9.9-17.9,18.8-7.5,37.6-14.9,56.5-22.2,12.4-4.8,21.2-.1,24.3,13,4.7,20.1,9.4,40.2,14.1,60.3,1.8,7.9-2,15-9,16.9-7.6,2.1-14.5-1.9-16.7-10.1-2.5-9.4-4.6-19-8.4-28.9-2.9,7.8-6.2,15.4-8.7,23.3-35.7,113.8,38.5,234.7,156.2,254.3,106.5,17.8,207.1-51.3,228.9-157.3,21.7-105.6-48.6-211.9-154.5-233.1-7.6-1.5-15.2-2.6-22.9-3.6-8.4-1.1-13.9-6.9-13.3-14.4.6-7.6,6.7-12.7,15.4-12.1,30.9,2.3,59.9,11.1,86.9,26,64.5,35.6,103.2,90.2,115.9,162.5,20.4,116.5-58.5,232.4-174.1,256-82.4,16.8-153.7-5.3-212.5-65.1-33-33.6-52-74.8-59.1-121.4-6.9-44.9,0-87.8,19.5-130.4h0Z"/>
  <path class="cls-1" d="M263.3,181c0,10.7-.3,21.3.2,32,.1,2.9,1.6,6.5,3.6,8.5,13.7,13.5,27.8,26.6,41.6,40,5.4,5.2,6.5,10.7,3.5,16.4-2.9,5.3-7.5,8.1-13.5,7.1-3.1-.5-6.4-2.3-8.7-4.4-16.2-15.1-32.4-30.2-48.1-45.8-3.1-3-5.4-8.3-5.5-12.6-.5-25.1-.3-50.2-.2-75.2,0-6,2.3-10.9,8.2-13.6,4.9-2.2,10.1-1.9,13.3,1.9,2.9,3.4,5,8.3,5.3,12.6.7,11,.2,22.1.2,33.2h0Z"/>
</svg>