<?xml version="1.0" encoding="UTF-8"?>
<svg id="Layer_1" xmlns="http://www.w3.org/2000/svg" viewBox="0 0 800 800">
  <defs>
    <style>
      .cls-1 {
        fill: #2f4866;
      }
    </style>
  </defs>
  <path class="cls-1" d="M209.9,302.68c-10.41,4.04-19.46,7.6-28.54,11.08-9.33,3.57-16.78.95-19.76-6.86-2.93-7.69.6-14.24,9.86-17.91,18.81-7.47,37.63-14.91,56.49-22.25,12.44-4.84,21.23-.15,24.34,12.97,4.75,20.09,9.42,40.21,14.06,60.33,1.82,7.92-2.02,14.98-8.99,16.9-7.57,2.08-14.51-1.92-16.69-10.12-2.51-9.43-4.61-18.97-8.41-28.87-2.91,7.75-6.2,15.38-8.68,23.27-35.72,113.84,38.52,234.67,156.2,254.34,106.51,17.81,207.09-51.31,228.89-157.28,21.73-105.65-48.59-211.86-154.45-233.15-7.57-1.52-15.23-2.6-22.89-3.61-8.41-1.11-13.91-6.91-13.31-14.45.6-7.56,6.74-12.7,15.38-12.05,30.85,2.33,59.91,11.07,86.93,25.99,64.51,35.64,103.23,90.21,115.88,162.51,20.38,116.49-58.49,232.4-174.14,256.04-82.35,16.83-153.68-5.27-212.49-65.1-33.01-33.58-52.03-74.78-59.14-121.36-6.85-44.86-.07-87.76,19.47-130.41Z"/>
  <path class="cls-1" d="M423.88,355.99c0,10.66-.26,21.33.17,31.98.12,2.93,1.58,6.49,3.65,8.53,13.69,13.5,27.77,26.62,41.6,39.98,5.43,5.24,6.52,10.73,3.48,16.38-2.85,5.3-7.5,8.13-13.45,7.07-3.08-.55-6.38-2.28-8.69-4.43-16.23-15.08-32.44-30.21-48.14-45.84-3.06-3.05-5.41-8.31-5.49-12.61-.51-25.07-.29-50.17-.21-75.25.02-6.05,2.34-10.94,8.22-13.61,4.9-2.22,10.1-1.87,13.33,1.93,2.85,3.35,4.99,8.27,5.28,12.64.73,11.03.24,22.14.25,33.22Z"/>
</svg>