<svg width="22" height="16" viewBox="0 0 22 16" fill="none" xmlns="http://www.w3.org/2000/svg">
<path d="M21.3061 2.96141C21.188 2.51791 20.9554 2.11321 20.6317 1.78779C20.3081 1.46236 19.9047 1.2276 19.4618 1.10699C17.8356 0.666992 11.3126 0.666992 11.3126 0.666992C11.3126 0.666992 4.78965 0.666992 3.16348 1.10608C2.72052 1.22676 2.31703 1.46166 1.99336 1.78726C1.66969 2.11286 1.4372 2.51774 1.31915 2.96141C0.882813 4.59949 0.882812 8.01499 0.882812 8.01499C0.882812 8.01499 0.882813 11.4314 1.31915 13.0686C1.43796 13.5085 1.67109 13.9092 1.99485 14.2299C2.31862 14.5506 2.7215 14.7799 3.16256 14.8946C4.78965 15.3337 11.3126 15.3337 11.3126 15.3337C11.3126 15.3337 17.8366 15.3337 19.4627 14.8946C19.904 14.7801 20.307 14.5508 20.631 14.2301C20.9549 13.9094 21.1882 13.5086 21.3071 13.0686C21.7434 11.4314 21.7434 8.01499 21.7434 8.01499C21.7434 8.01499 21.7425 4.59949 21.3061 2.96141ZM9.17865 11.117V4.91391L14.631 8.01499L9.17956 11.117H9.17865Z" fill="#2E4765"/>
</svg>
