<svg width="36" height="36" viewBox="0 0 36 36" fill="none" xmlns="http://www.w3.org/2000/svg">
<circle cx="18.0014" cy="17.9585" r="17.9585" fill="#2E4765"/>
<path d="M26.6921 13.3981C26.5886 13.0096 26.3848 12.6551 26.1013 12.37C25.8178 12.0849 25.4644 11.8793 25.0764 11.7736C23.6519 11.3882 17.9376 11.3882 17.9376 11.3882C17.9376 11.3882 12.2233 11.3882 10.7987 11.7728C10.4107 11.8786 10.0572 12.0843 9.77364 12.3696C9.4901 12.6548 9.28644 13.0095 9.18302 13.3981C8.80078 14.8331 8.80078 17.8252 8.80078 17.8252C8.80078 17.8252 8.80078 20.8181 9.18302 22.2523C9.2871 22.6377 9.49133 22.9887 9.77495 23.2696C10.0586 23.5506 10.4115 23.7515 10.7979 23.8519C12.2233 24.2365 17.9376 24.2365 17.9376 24.2365C17.9376 24.2365 23.6527 24.2365 25.0772 23.8519C25.4637 23.7516 25.8168 23.5507 26.1006 23.2698C26.3844 22.9888 26.5887 22.6378 26.6929 22.2523C27.0751 20.8181 27.0751 17.8252 27.0751 17.8252C27.0751 17.8252 27.0743 14.8331 26.6921 13.3981ZM16.0681 20.5426V15.1086L20.8445 17.8252L16.0689 20.5426H16.0681Z" fill="white"/>
</svg>
